<svg xmlns="http://www.w3.org/2000/svg" viewBox="0 0 533.65 533.65"><defs><style>.cls-1{fill:#231f20;}.cls-2{fill:#fff;}.cls-3{fill:#e13327;}</style></defs><g id="Layer_2" data-name="Layer 2"><g id="Layer_1-2" data-name="Layer 1"><circle class="cls-1" cx="266.82" cy="266.82" r="266.82"/><path class="cls-2" d="M139.05,211s17.25-59.25,85-75.13V86.45h9.62V134.2a298.57,298.57,0,0,1,73.5.12V86.45h9.13v49.87s58.62,8.75,84.37,74.63c0,0,19.76-7.44,28.43,14.78a4.71,4.71,0,0,1,.32,1.74v40.07a5.06,5.06,0,0,1-.13,1.17c-.71,3-4.66,15.71-20.74,15.49l-.19,47.19h-277V284.32s-16.77,1.79-21.18-17.63a6.1,6.1,0,0,1-.16-1.41V228.05a5.51,5.51,0,0,1,.22-1.57C111.35,222.43,117.45,205.47,139.05,211Z"/><circle class="cls-2" cx="228.79" cy="68.89" r="18.68"/><circle class="cls-2" cx="312.1" cy="68.89" r="18.68"/><circle class="cls-1" cx="208.87" cy="246.82" r="20"/><circle class="cls-1" cx="331.72" cy="246.82" r="20"/><path class="cls-2" d="M196.14,359.89q0,2.53-.15,7.66t-.15,7.68q0,2.4,0,7.2t0,7.21c0,.48-.15.73-.47.73s-.47,0-.84-.07-.66-.07-.85-.07-.5,0-.92.07-.72.07-.92.07-.49-.25-.81-.73q-4-6.42-12.3-19.16c-.85-1.29-1.34-2-1.48-2.16-.13,0-.19.3-.19.9q0,3.4.09,10.21t.1,10.21c0,.48-.13.73-.38.73s-.53,0-1-.07-.77-.07-1-.07-.56,0-1,.07-.78.07-1,.07-.47-.15-.47-.45q0-2.42.2-7.31t.2-7.34q0-2.67-.17-9.62c0-1.21-.09-3-.19-5.43l0-.29c0-.22.14-.34.45-.35q1.22,0,1.92-.09a7.71,7.71,0,0,0,1-.18,5.63,5.63,0,0,1,1-.13c.11,0,.31.21.58.64q4.32,7,13.22,20.75c.27.38.51.71.74,1,.08-.62.13-2,.13-4.24q0-2.86-.18-8.6t-.18-8.59c0-.49.12-.73.38-.73a10.09,10.09,0,0,1,1,.07q.69.06,1,.06c.24,0,.6,0,1.07-.06s.84-.07,1.07-.07S196.14,359.56,196.14,359.89Z"/><path class="cls-2" d="M223.75,359.89q0,2.53-.15,7.66t-.15,7.68q0,2.4,0,7.2t0,7.21c0,.48-.16.73-.47.73s-.47,0-.84-.07-.66-.07-.85-.07-.51,0-.92.07-.72.07-.92.07-.49-.25-.81-.73q-4.05-6.42-12.3-19.16c-.85-1.29-1.34-2-1.48-2.16-.13,0-.19.3-.19.9q0,3.4.09,10.21t.1,10.21c0,.48-.13.73-.38.73s-.54,0-1-.07-.77-.07-1-.07-.56,0-1,.07-.78.07-1,.07-.47-.15-.47-.45c0-1.61.06-4.05.2-7.31s.19-5.71.19-7.34,0-5-.17-9.62q0-1.81-.18-5.43l0-.29c0-.22.14-.34.45-.35q1.22,0,1.92-.09a7.71,7.71,0,0,0,1-.18,5.63,5.63,0,0,1,1-.13c.11,0,.3.21.58.64q4.32,7,13.22,20.75c.26.38.51.71.73,1a39.88,39.88,0,0,0,.13-4.24c0-1.91,0-4.78-.17-8.6s-.18-6.69-.18-8.59c0-.49.12-.73.37-.73a10.07,10.07,0,0,1,1,.07c.45,0,.8.06,1,.06s.6,0,1.07-.06.83-.07,1.07-.07S223.75,359.56,223.75,359.89Z"/><path class="cls-2" d="M252.54,374.87A18.17,18.17,0,0,1,249,386.15a11.17,11.17,0,0,1-18.48,0,19.53,19.53,0,0,1,0-22.57q3.72-4.94,9.2-4.93T249,363.6A18.08,18.08,0,0,1,252.54,374.87Zm-4.53-.06a12.56,12.56,0,0,0-2.29-7.53,7.17,7.17,0,0,0-6-3.4,7.06,7.06,0,0,0-6,3.45,13.74,13.74,0,0,0,0,15.07,7.07,7.07,0,0,0,6,3.44,7.16,7.16,0,0,0,6.05-3.44A12.8,12.8,0,0,0,248,374.81Z"/><path class="cls-2" d="M276.32,370.44c0,.61-1.23,3.65-3.68,9.09q-2.34,5.1-4.66,10.2c-.19.42-.4.64-.62.64h-3.78c-.17,0-.35-.22-.52-.64l-4.47-9.89q-3.78-8.37-3.78-9.14c0-1.16,0-2.91.11-5.24s.1-4.08.1-5.24c0-.54.15-.82.45-.82a10.06,10.06,0,0,1,1,.07c.46,0,.81.06,1,.06s.57,0,1-.06a10.07,10.07,0,0,1,1-.07.37.37,0,0,1,.43.42c0,1.19-.06,3-.2,5.39s-.19,4.2-.19,5.4q0,1.5,5.82,13.38,1.54-3.09,3.34-7.09c1.74-3.85,2.61-6.12,2.61-6.79,0-1.15,0-2.87-.09-5.15s-.09-4-.09-5.12c0-.29.13-.44.41-.44a10.21,10.21,0,0,1,1,.07c.46,0,.81.06,1,.06s.57,0,1-.06a9.92,9.92,0,0,1,1-.07.43.43,0,0,1,.47.42,4.54,4.54,0,0,0,0,.84c0,1.09,0,2.72,0,4.89S276.32,369.35,276.32,370.44Z"/><path class="cls-2" d="M297.22,385.93a4.89,4.89,0,0,1-.15,1q-.17.84-.21,1c0,.53-.12,1.3-.26,2.32a.45.45,0,0,1-.49.39,6.69,6.69,0,0,1-.71-.08,45.74,45.74,0,0,0-7.16-.4c-.91,0-2.29,0-4.13.09s-3.22.09-4.13.09a.56.56,0,0,1-.62-.64q0-2.48.23-7.43t.24-7.43q0-2.5-.23-9.38c0-1.17-.09-2.93-.2-5.27l0-.31a.43.43,0,0,1,.49-.51c.87,0,2.19,0,3.94.09s3.07.09,3.94.09,2.1,0,3.77-.09,2.93-.09,3.77-.09c.58,0,.9.22.95.64.27,1.94.4,3.15.4,3.62s-.14.51-.42.51q-1.59,0-4.83-.21c-2.16-.14-3.79-.21-4.88-.21s-1.67.16-1.94.49a4.38,4.38,0,0,0-.4,2.4v3.29a13.33,13.33,0,0,0,.05,1.57.89.89,0,0,0,1,.68l.64,0h.64q3.67,0,6.61-.16c.76,0,1.66-.1,2.7-.22.27,0,.4.11.4.4,0,.47-.05,1.19-.14,2.16s-.14,1.7-.14,2.19c0,.26-.19.4-.57.4-.15,0-.71-.06-1.67-.16-.7-.09-2.28-.13-4.73-.13q-3.1,0-3.93.09a.91.91,0,0,0-.86.92c0-.1,0,.47,0,1.7v3.27c0,1.53.2,2.49.6,2.87a3.74,3.74,0,0,0,2.35.46l2.06,0q1.32,0,7.38-.53l.28,0C297.09,385.35,297.22,385.53,297.22,385.93Z"/><path class="cls-2" d="M323.76,359.89q0,2.53-.15,7.66t-.15,7.68q0,2.4,0,7.2t0,7.21c0,.48-.15.73-.47.73s-.47,0-.84-.07-.66-.07-.85-.07-.5,0-.92.07-.72.07-.92.07-.49-.25-.81-.73q-4.05-6.42-12.3-19.16c-.85-1.29-1.34-2-1.48-2.16-.13,0-.19.3-.19.9q0,3.4.09,10.21t.1,10.21c0,.48-.13.73-.38.73s-.53,0-1-.07-.77-.07-1-.07-.56,0-1,.07-.78.07-1,.07-.47-.15-.47-.45q0-2.42.2-7.31t.2-7.34q0-2.67-.17-9.62c0-1.21-.09-3-.19-5.43l0-.29c0-.22.14-.34.45-.35q1.22,0,1.92-.09a7.71,7.71,0,0,0,1-.18,5.75,5.75,0,0,1,1-.13c.11,0,.31.21.58.64q4.32,7,13.22,20.75c.27.38.51.71.74,1,.08-.62.13-2,.13-4.24q0-2.86-.18-8.6t-.18-8.59c0-.49.13-.73.38-.73a10.09,10.09,0,0,1,1,.07q.69.06,1,.06c.24,0,.6,0,1.07-.06s.84-.07,1.07-.07S323.76,359.56,323.76,359.89Z"/><path class="cls-2" d="M345.21,363.57c0,.39-.12.58-.34.58s-2.57-.09-6.65-.27q-.17,6.74-.17,10.79c0,1.7.05,4.23.16,7.62s.16,5.92.16,7.61c0,.31-.18.47-.54.47s-.57,0-1-.07-.81-.07-1.05-.07-.57,0-1,.07-.81.07-1,.07-.47-.19-.47-.56c0-1.67.05-4.19.17-7.55s.18-5.89.18-7.59q0-3.92-.2-10.79-4.85.36-7.1.36A.21.21,0,0,1,326,364a5.88,5.88,0,0,1,.17-1.14c.14-.65.22-1,.24-1.15,0-.52.12-1.23.27-2.14.06-.19.17-.29.32-.29l.22,0c4.43.31,7.36.47,8.77.47q1.88,0,6.14-.33a18.84,18.84,0,0,0,2.43-.22q.48,0,.54.39a18.3,18.3,0,0,0,0,2.14c0,.2,0,.49.06.9S345.21,363.37,345.21,363.57Z"/><path class="cls-3" d="M158.41,352.36c3.42-8.11,3.65-9.4-2.63-10.18l-2.74-.34a1.24,1.24,0,0,1,.69-2.16c4.56.17,8.44.26,13.23.26s8.22-.09,13.69-.26a1.19,1.19,0,0,1,0,2.16l-3.08.34c-6.62.78-7.07,1.64-10.61,10.18l-13.35,32.09c-3.3,8-3.65,9.84,2.17,10.27l3.54.26a1.35,1.35,0,0,1-.46,2.15c-5.59-.17-9.47-.26-14.37-.26-4.68,0-8.56.09-13.12.26a1.22,1.22,0,0,1-.11-2.15l3.53-.26c5.48-.43,6.62-1.47,10.27-10.27Z"/><rect class="cls-2" x="130.67" y="410.2" width="276.67" height="36.88"/><polygon class="cls-3" points="350.71 345.99 373.34 368.41 350.71 390.37 347.34 387.66 368 368.41 347.34 348.95 350.71 345.99"/><polygon class="cls-3" points="368.67 386.66 377.67 377.82 397.84 397.82 401 394.66 377.84 372.32 365.5 383.82 368.67 386.66"/><polygon class="cls-3" points="405.67 343.99 382.34 368.18 394 380.16 397 377.66 388 368.18 408.34 346.99 405.67 343.99"/><polygon class="cls-3" points="365.92 352.39 369.17 349.82 377.17 357.66 391.5 344.16 394.34 346.82 377.84 363.16 365.92 352.39"/><path class="cls-1" d="M164.18,432.63a7.9,7.9,0,0,1-.11,1.56.26.26,0,0,1-.28.22c-.38,0-1,0-1.73-.06s-1.35-.07-1.74-.07l-1.63,0-1.63,0a.18.18,0,0,1-.2-.2c0-.56,0-1.42.06-2.57s.06-2,.06-2.58,0-1.5-.08-2.71-.08-2.11-.08-2.72c0-.11.06-.17.19-.17l.43,0,.44,0,.44,0,.43,0c.13,0,.19.05.19.15q0,.83-.06,2.49c0,1.11-.06,2-.06,2.5v1.24c0,.55,0,1,0,1.23,0,1.16.05,1.74.14,1.74,1.92,0,3.37-.05,4.35-.14l.36-.06a2.29,2.29,0,0,1,.36,0C164.13,432.48,164.18,432.53,164.18,432.63Z"/><path class="cls-1" d="M172.49,432.76a1.64,1.64,0,0,1-.06.36c-.05.2-.08.31-.09.36s-.05.46-.11.82a.19.19,0,0,1-.2.14l-.3,0a21.6,21.6,0,0,0-3-.14l-1.71,0-1.72,0c-.18,0-.26-.08-.26-.23,0-.58,0-1.46.1-2.63s.09-2,.09-2.63,0-1.7-.09-3.32c0-.41,0-1-.09-1.86v-.11c0-.12.06-.18.2-.18l1.64,0,1.64,0,1.57,0,1.56,0c.25,0,.38.07.4.22a12.45,12.45,0,0,1,.17,1.29c0,.12-.06.17-.18.17-.44,0-1.11,0-2-.07s-1.57-.07-2-.07-.7,0-.81.17-.17.4-.17.85v1.16a4.64,4.64,0,0,0,0,.56c0,.16.18.24.41.24H168c1,0,1.94,0,2.75-.05.32,0,.69,0,1.12-.08.11,0,.17,0,.17.14a7.44,7.44,0,0,1-.06.77,7.25,7.25,0,0,0-.06.77c0,.09-.08.14-.23.14l-.7-.05c-.29,0-.95,0-2,0-.86,0-1.4,0-1.63,0a.36.36,0,0,0-.36.33,4.28,4.28,0,0,1,0,.6v1.16c0,.54.08.88.25,1a1.76,1.76,0,0,0,1,.17h.85c.37,0,1.39-.06,3.08-.19h.11C172.44,432.55,172.49,432.62,172.49,432.76Z"/><path class="cls-1" d="M183.36,434.23c0,.07-.06.1-.18.1l-.44,0-.43,0-.45,0-.44,0c-.15,0-.33-.4-.56-1.19s-.46-1.18-.69-1.19-.7,0-1.51,0h-1.23c-.86,0-1.35,0-1.47,0s-.39.41-.6,1.2-.37,1.18-.49,1.18h-1.76c-.1,0-.15,0-.15-.11a1.1,1.1,0,0,1,.11-.35l1.91-5.24c.16-.42.65-1.63,1.47-3.65.14-.33.34-.83.59-1.5.07-.2.13-.3.21-.3a2.93,2.93,0,0,1,.43,0,3,3,0,0,0,.44,0l.43,0a3.21,3.21,0,0,1,.42-.05s.11.1.19.29.74,1.86,1.85,4.71Q183.37,434.19,183.36,434.23Zm-3.64-4.31a12.68,12.68,0,0,0-.7-2c-.45-1.17-.77-1.93-1-2.3q-1.62,4.13-1.62,4.32c0,.18.2.29.6.32h1.57C179.35,430.23,179.72,430.13,179.72,429.92Z"/><path class="cls-1" d="M192.69,434.27s0,.06-.12.06l-.46,0-.45,0-.49,0-.49,0a.29.29,0,0,1-.27-.2c-.17-.35-.64-1.45-1.42-3.29a.66.66,0,0,0-.57-.34h-.71c-.72,0-1.15,0-1.28,0s-.17.15-.17.4,0,.91.05,1.64.05,1.27.05,1.63c0,.11-.05.16-.15.16l-.48,0a3.5,3.5,0,0,0-.48,0l-.4,0-.41,0c-.13,0-.19-.06-.19-.18,0-.58,0-1.45.08-2.61s.08-2,.08-2.6c0-1.65-.06-3.4-.18-5.27v-.12c0-.11.11-.16.33-.16l2,0c.9,0,1.56,0,2,0a4.38,4.38,0,0,1,2.78.83,3.11,3.11,0,0,1,1.15,2.59,4.32,4.32,0,0,1-.31,1.82A3.51,3.51,0,0,1,191,429.9c-.1.07-.15.13-.15.19s.32.77.94,2.08A19.34,19.34,0,0,1,192.69,434.27Zm-2.14-7.09a2,2,0,0,0-.81-1.89,4.6,4.6,0,0,0-2.17-.35c-.84,0-1.27.07-1.28.2,0,.28-.06,1-.06,2.26v1.49l.1,0,.46,0c.5,0,1,0,1.6,0C189.83,429,190.55,428.39,190.55,427.18Z"/><path class="cls-1" d="M203.58,423.54c0,.6,0,1.5-.06,2.71s-.06,2.11-.06,2.72,0,1.42,0,2.55,0,2,0,2.55c0,.17-.07.26-.2.26l-.35,0-.35,0-.38,0-.39,0c-.09,0-.2-.09-.33-.26-1.13-1.52-2.83-3.78-5.12-6.78-.35-.46-.56-.71-.62-.77s-.07.11-.07.32c0,.81,0,2,0,3.62s0,2.81,0,3.61c0,.17-.05.26-.15.26l-.41,0-.4,0-.42,0-.42,0c-.13,0-.2-.05-.2-.16,0-.57,0-1.43.09-2.59s.08-2,.08-2.6,0-1.76-.07-3.4c0-.43,0-1.07-.08-1.92v-.11c0-.07.06-.12.19-.12.34,0,.6,0,.8,0l.41-.06a1.79,1.79,0,0,1,.41,0s.12.07.24.23q1.8,2.46,5.5,7.34c.11.14.21.25.3.35a11.13,11.13,0,0,0,.06-1.5c0-.68,0-1.69-.08-3s-.07-2.36-.07-3c0-.18,0-.26.16-.26l.42,0a3.82,3.82,0,0,0,.43,0,4.07,4.07,0,0,0,.44,0l.45,0C203.53,423.37,203.58,423.43,203.58,423.54Z"/><path class="cls-1" d="M211.1,435.06c0,.11,0,.17-.1.18a6.61,6.61,0,0,1-1.2.18s-.06-.05-.06-.15v-6c0-.63,0-1.57,0-2.83s0-2.21,0-2.83c0-.27.28-.39.85-.38h.35c.09,0,.15.07.16.21a5.52,5.52,0,0,1,0,.82c0,.46,0,.74,0,.82v4c0,.58,0,1.57.05,3S211.1,434.38,211.1,435.06Z"/><path class="cls-1" d="M219.31,434.16c0,.11-.08.17-.23.17l-.43,0-.43,0-.43,0-.43,0c-.13,0-.2-.06-.2-.18,0-.6,0-1.49.08-2.68s.08-2.1.08-2.7,0-1.44-.08-2.6-.08-2-.08-2.61c0-.13.06-.19.18-.19l.45,0a4.5,4.5,0,0,0,.46,0,3.82,3.82,0,0,0,.43,0l.42,0c.13,0,.2.05.2.15,0,.59,0,1.46-.06,2.63s-.06,2-.06,2.62,0,1.5.06,2.7S219.31,433.57,219.31,434.16Z"/><path class="cls-1" d="M231.93,434.13c0,.13-.06.2-.19.2l-.43,0-.42,0-.43,0-.43,0c-.13,0-.2-.09-.2-.26,0-.66,0-1.65.06-3s.07-2.31.07-3c0-.1,0-.15-.07-.15a.11.11,0,0,0-.1.08q-.4.85-1.89,4.55c-.16.48-.39,1.07-.69,1.78,0,.06-.23.1-.57.1s-.76-.05-.81-.14c-.17-.42-.43-1-.76-1.77q-.65-1.54-2-4.61a.32.32,0,0,0-.1-.11.21.21,0,0,0-.06.17c0,.68,0,1.68,0,3s0,2.35,0,3c0,.17-.07.26-.2.26l-.4,0-.41,0-.42,0-.42,0c-.13,0-.19-.05-.19-.15,0-.58,0-1.44.08-2.6s.08-2,.08-2.6,0-1.49-.08-2.69-.08-2.11-.08-2.7q0-.15.18-.18a14.15,14.15,0,0,1,1.6-.14c.05,0,.13.11.22.32q1.89,4.16,3.25,7.43a2.49,2.49,0,0,0,.38.76s.17-.21.34-.62q1.07-2.54,2.94-7.52c.08-.2.17-.3.26-.3l.8,0,.8,0c.13,0,.2.06.2.19,0,.59,0,1.5-.06,2.7s-.06,2.1-.06,2.69,0,1.44.07,2.58S231.93,433.57,231.93,434.13Z"/><path class="cls-1" d="M242.44,427.41a4.22,4.22,0,0,1-1,2.94,3.61,3.61,0,0,1-2.84,1.13l-1.34,0-1.36,0c-.17,0-.25.11-.25.32s0,.7.05,1.25,0,1,0,1.24c0,.09,0,.13-.15.13l-.49,0a3.86,3.86,0,0,0-.5,0l-.41,0-.41,0c-.13,0-.19-.08-.19-.24,0-.57,0-1.43.07-2.57s.07-2,.07-2.58c0-1.63-.06-3.37-.18-5.24v-.11c0-.12.06-.18.2-.18h2.55l1.1,0,1.1,0a3.75,3.75,0,0,1,2.84,1.17A4,4,0,0,1,242.44,427.41Zm-2,.12a2.7,2.7,0,0,0-.63-1.87,2.31,2.31,0,0,0-1.81-.74c-.24,0-.67,0-1.28.06a4.39,4.39,0,0,0-1.09.13,26.64,26.64,0,0,0,0,2.69c0,.22,0,.54,0,1s0,.77,0,1c0,0,.06.08.18.11a20.15,20.15,0,0,0,2.38.08,2.16,2.16,0,0,0,1.7-.68A2.54,2.54,0,0,0,240.47,427.53Z"/><path class="cls-1" d="M250.94,432.63a7,7,0,0,1-.12,1.56.25.25,0,0,1-.27.22c-.38,0-1,0-1.73-.06s-1.35-.07-1.74-.07l-1.63,0-1.63,0a.18.18,0,0,1-.2-.2c0-.56,0-1.42.06-2.57s.06-2,.06-2.58,0-1.5-.08-2.71-.09-2.11-.09-2.72c0-.11.07-.17.2-.17l.43,0,.44,0,.43,0,.44,0c.13,0,.19.05.19.15q0,.83-.06,2.49c0,1.11-.07,2-.07,2.5V431c0,1.16,0,1.74.14,1.74,1.92,0,3.37-.05,4.35-.14l.36-.06a2,2,0,0,1,.36,0C250.89,432.48,250.94,432.53,250.94,432.63Z"/><path class="cls-1" d="M259.25,432.76a1.29,1.29,0,0,1-.07.36c0,.2-.07.31-.08.36s-.05.46-.11.82a.2.2,0,0,1-.2.14l-.3,0a21.6,21.6,0,0,0-3-.14l-1.72,0-1.72,0c-.17,0-.25-.08-.25-.23,0-.58,0-1.46.09-2.63s.1-2,.1-2.63,0-1.7-.09-3.32c0-.41,0-1-.09-1.86v-.11q0-.18.21-.18l1.64,0,1.64,0,1.57,0,1.56,0c.25,0,.38.07.4.22a11.32,11.32,0,0,1,.16,1.29c0,.12-.05.17-.17.17-.44,0-1.11,0-2-.07s-1.57-.07-2-.07a1.24,1.24,0,0,0-.81.17,1.39,1.39,0,0,0-.16.85v1.16a3.08,3.08,0,0,0,0,.56c0,.16.18.24.41.24h.53c1,0,1.94,0,2.75-.05.31,0,.69,0,1.12-.08.11,0,.17,0,.17.14a7.44,7.44,0,0,1-.06.77,7.25,7.25,0,0,0-.06.77c0,.09-.08.14-.23.14l-.7-.05c-.29,0-.95,0-2,0-.86,0-1.4,0-1.63,0a.36.36,0,0,0-.36.33s0,.16,0,.6v1.16c0,.54.08.88.25,1a1.74,1.74,0,0,0,1,.17h.86c.37,0,1.39-.06,3.07-.19h.12C259.19,432.55,259.25,432.62,259.25,432.76Z"/><path class="cls-1" d="M271.44,434.13c0,.13-.06.2-.19.2l-.43,0-.43,0-.42,0-.43,0c-.13,0-.2-.09-.2-.26,0-.66,0-1.65.06-3s.07-2.31.07-3c0-.1,0-.15-.07-.15a.14.14,0,0,0-.11.08q-.39.85-1.88,4.55c-.16.48-.39,1.07-.69,1.78,0,.06-.23.1-.57.1s-.76-.05-.81-.14l-.76-1.77q-.65-1.54-2-4.61a.47.47,0,0,0-.1-.11.21.21,0,0,0-.06.17c0,.68,0,1.68,0,3s0,2.35,0,3c0,.17-.07.26-.2.26l-.41,0-.4,0-.42,0-.42,0c-.13,0-.19-.05-.19-.15,0-.58,0-1.44.08-2.6s.08-2,.08-2.6,0-1.49-.08-2.69-.08-2.11-.08-2.7q0-.15.18-.18a14,14,0,0,1,1.6-.14c.05,0,.12.11.22.32q1.89,4.16,3.25,7.43a2.49,2.49,0,0,0,.38.76c.05,0,.16-.21.34-.62.7-1.69,1.69-4.2,2.94-7.52.08-.2.17-.3.26-.3l.8,0,.8,0c.13,0,.2.06.2.19,0,.59,0,1.5-.06,2.7s-.06,2.1-.06,2.69,0,1.44.07,2.58S271.44,433.57,271.44,434.13Z"/><path class="cls-1" d="M280.5,432.76a1.29,1.29,0,0,1-.07.36c0,.2-.07.31-.08.36s-.05.46-.11.82a.2.2,0,0,1-.2.14l-.3,0a21.6,21.6,0,0,0-3-.14l-1.72,0-1.72,0c-.17,0-.25-.08-.25-.23,0-.58,0-1.46.09-2.63s.1-2,.1-2.63,0-1.7-.09-3.32c0-.41,0-1-.09-1.86v-.11q0-.18.21-.18l1.64,0,1.64,0,1.57,0,1.56,0c.25,0,.38.07.4.22a11.32,11.32,0,0,1,.16,1.29c0,.12-.05.17-.17.17-.44,0-1.11,0-2-.07s-1.57-.07-2-.07a1.24,1.24,0,0,0-.81.17,1.39,1.39,0,0,0-.16.85v1.16a3.08,3.08,0,0,0,0,.56c.05.16.18.24.41.24H276c1,0,1.94,0,2.75-.05.31,0,.69,0,1.12-.08.11,0,.17,0,.17.14a7.44,7.44,0,0,1-.06.77,7.25,7.25,0,0,0-.06.77c0,.09-.08.14-.23.14l-.7-.05c-.29,0-.95,0-2,0-.86,0-1.4,0-1.63,0a.36.36,0,0,0-.36.33s0,.16,0,.6v1.16c0,.54.08.88.25,1a1.74,1.74,0,0,0,1,.17h.86c.37,0,1.39-.06,3.07-.19h.12C280.44,432.55,280.5,432.62,280.5,432.76Z"/><path class="cls-1" d="M291.54,423.54c0,.6,0,1.5-.07,2.71s-.06,2.11-.06,2.72,0,1.42,0,2.55,0,2,0,2.55c0,.17-.06.26-.19.26l-.36,0-.35,0-.38,0-.38,0c-.1,0-.21-.09-.34-.26q-1.68-2.28-5.12-6.78c-.35-.46-.56-.71-.61-.77s-.08.11-.08.32c0,.81,0,2,0,3.62s0,2.81,0,3.61c0,.17,0,.26-.16.26l-.41,0-.4,0-.42,0-.42,0c-.13,0-.19-.05-.19-.16,0-.57,0-1.43.08-2.59s.08-2,.08-2.6,0-1.76-.07-3.4c0-.43,0-1.07-.08-1.92v-.11c0-.07,0-.12.18-.12.34,0,.61,0,.8,0l.41-.06a1.86,1.86,0,0,1,.41,0c.05,0,.13.07.24.23q1.8,2.46,5.5,7.34a3.82,3.82,0,0,0,.31.35,14.24,14.24,0,0,0,.05-1.5c0-.68,0-1.69-.07-3s-.08-2.36-.08-3c0-.18,0-.26.16-.26l.42,0a4,4,0,0,0,.43,0,4.23,4.23,0,0,0,.45,0l.44,0A.15.15,0,0,1,291.54,423.54Z"/><path class="cls-1" d="M300.46,424.84c0,.14,0,.21-.14.21l-2.77-.1c-.05,1.59-.07,2.87-.07,3.82,0,.6,0,1.5.07,2.7s.06,2.1.06,2.69c0,.11-.07.17-.22.17l-.43,0-.44,0-.43,0-.43,0c-.13,0-.19-.07-.19-.2,0-.59,0-1.48.07-2.67s.07-2.09.07-2.69c0-.92,0-2.2-.08-3.82-1.35.09-2.33.13-3,.13-.06,0-.09,0-.09-.08a1.64,1.64,0,0,1,.07-.41c.06-.23.09-.36.1-.4a6.55,6.55,0,0,1,.11-.76.13.13,0,0,1,.13-.1h.1c1.84.11,3.06.16,3.65.16s1.37,0,2.55-.12a6.87,6.87,0,0,0,1-.08c.14,0,.21.05.23.15a4.37,4.37,0,0,0,0,.75c0,.07,0,.18,0,.32A2.5,2.5,0,0,1,300.46,424.84Z"/><path class="cls-1" d="M307.26,435.06q0,.17-.09.18a6.86,6.86,0,0,1-1.2.18c-.05,0-.07-.05-.07-.15v-6c0-.63,0-1.57,0-2.83s0-2.21,0-2.83c0-.27.29-.39.86-.38H307c.1,0,.15.07.16.21a5.52,5.52,0,0,1,0,.82c0,.46,0,.74,0,.82v4c0,.58,0,1.57.05,3S307.26,434.38,307.26,435.06Z"/><path class="cls-1" d="M315.47,434.16c0,.11-.07.17-.22.17l-.43,0-.43,0-.44,0-.43,0c-.13,0-.2-.06-.2-.18,0-.6,0-1.49.09-2.68s.08-2.1.08-2.7,0-1.44-.08-2.6-.09-2-.09-2.61c0-.13.06-.19.18-.19l.46,0a4.3,4.3,0,0,0,.46,0,3.75,3.75,0,0,0,.42,0l.42,0q.21,0,.21.15c0,.59,0,1.46-.07,2.63s-.06,2-.06,2.62,0,1.5.07,2.7S315.47,433.57,315.47,434.16Z"/><path class="cls-1" d="M326.94,423.54c0,.6,0,1.5-.06,2.71s-.06,2.11-.06,2.72,0,1.42,0,2.55,0,2,0,2.55c0,.17-.07.26-.2.26l-.35,0-.35,0-.38,0-.39,0c-.09,0-.2-.09-.33-.26-1.13-1.52-2.83-3.78-5.12-6.78-.35-.46-.56-.71-.62-.77s-.07.11-.07.32c0,.81,0,2,0,3.62s0,2.81,0,3.61c0,.17-.05.26-.15.26l-.41,0-.41,0-.41,0-.42,0c-.13,0-.2-.05-.2-.16,0-.57,0-1.43.09-2.59s.08-2,.08-2.6,0-1.76-.07-3.4c0-.43,0-1.07-.08-1.92v-.11c0-.07.06-.12.19-.12.34,0,.6,0,.8,0l.41-.06a1.79,1.79,0,0,1,.41,0s.12.07.24.23q1.8,2.46,5.5,7.34c.11.14.21.25.3.35a11.13,11.13,0,0,0,.06-1.5c0-.68,0-1.69-.08-3s-.07-2.36-.07-3c0-.18.05-.26.16-.26l.42,0a3.82,3.82,0,0,0,.43,0,4.07,4.07,0,0,0,.44,0l.45,0C326.89,423.37,326.94,423.43,326.94,423.54Z"/><path class="cls-1" d="M338.43,423.54c0,.6,0,1.5-.07,2.71s-.06,2.11-.06,2.72,0,1.42,0,2.55,0,2,0,2.55c0,.17-.06.26-.19.26l-.35,0-.36,0-.38,0-.38,0c-.1,0-.21-.09-.34-.26-1.12-1.52-2.83-3.78-5.11-6.78-.36-.46-.56-.71-.62-.77s-.08.11-.08.32c0,.81,0,2,0,3.62s0,2.81,0,3.61c0,.17-.05.26-.16.26l-.4,0-.41,0-.42,0-.42,0c-.13,0-.19-.05-.19-.16,0-.57,0-1.43.08-2.59s.08-2,.08-2.6,0-1.76-.07-3.4c0-.43,0-1.07-.08-1.92v-.11c0-.07.05-.12.18-.12.34,0,.61,0,.8,0l.41-.06a1.86,1.86,0,0,1,.41,0s.13.07.24.23q1.8,2.46,5.5,7.34a3.82,3.82,0,0,0,.31.35,14.24,14.24,0,0,0,.05-1.5c0-.68,0-1.69-.07-3s-.08-2.36-.08-3c0-.18.06-.26.16-.26l.43,0a3.75,3.75,0,0,0,.42,0,4.23,4.23,0,0,0,.45,0l.44,0A.15.15,0,0,1,338.43,423.54Z"/><path class="cls-1" d="M350.4,428.84a5.83,5.83,0,0,1-1.48,4,5.14,5.14,0,0,1-7.69,0,6.1,6.1,0,0,1,0-8,5.09,5.09,0,0,1,7.66,0A5.78,5.78,0,0,1,350.4,428.84Zm-1.88,0a4,4,0,0,0-.95-2.66,3.18,3.18,0,0,0-5,0,4.3,4.3,0,0,0,0,5.34,3.17,3.17,0,0,0,5,0A4.09,4.09,0,0,0,348.52,428.82Z"/><path class="cls-1" d="M360.29,427.27a18.34,18.34,0,0,1-1.53,3.22c-.64,1.21-1.29,2.41-1.94,3.61-.07.15-.16.23-.25.23H355c-.08,0-.15-.08-.22-.23l-1.86-3.5a21.65,21.65,0,0,1-1.57-3.23c0-.41,0-1,0-1.86s0-1.44,0-1.85c0-.2.07-.29.19-.29l.43,0a4.07,4.07,0,0,0,.44,0,3.91,3.91,0,0,0,.43,0l.43,0q.18,0,.18.15c0,.42,0,1.05-.08,1.9s-.09,1.49-.09,1.92.81,1.93,2.43,4.73c.42-.73.89-1.56,1.39-2.51a10.12,10.12,0,0,0,1.08-2.4c0-.41,0-1,0-1.82s0-1.41,0-1.82q0-.15.18-.15l.43,0a4,4,0,0,0,.43,0,3.82,3.82,0,0,0,.43,0l.42,0a.17.17,0,0,1,.2.15s0,.06,0,.29c0,.39,0,1,0,1.73S360.29,426.89,360.29,427.27Z"/><path class="cls-1" d="M371.25,434.23c0,.07-.06.1-.18.1l-.44,0-.43,0-.45,0-.44,0c-.15,0-.33-.4-.56-1.19s-.46-1.18-.69-1.19-.7,0-1.51,0h-1.23c-.86,0-1.35,0-1.47,0s-.39.41-.6,1.2-.37,1.18-.49,1.18H361c-.1,0-.15,0-.15-.11a1.1,1.1,0,0,1,.11-.35l1.91-5.24c.16-.42.65-1.63,1.47-3.65.15-.33.34-.83.59-1.5.07-.2.13-.3.21-.3a2.82,2.82,0,0,1,.43,0,3,3,0,0,0,.44,0l.43,0a3.21,3.21,0,0,1,.42-.05s.11.1.19.29.74,1.86,1.85,4.71Q371.26,434.19,371.25,434.23Zm-3.64-4.31a12.68,12.68,0,0,0-.7-2c-.45-1.17-.77-1.93-1-2.3q-1.62,4.13-1.62,4.32c0,.18.2.29.6.32h1.57C367.24,430.23,367.61,430.13,367.61,429.92Z"/><path class="cls-1" d="M379.4,424.84c0,.14,0,.21-.14.21l-2.76-.1c-.05,1.59-.07,2.87-.07,3.82q0,.9.06,2.7c.05,1.2.07,2.1.07,2.69,0,.11-.08.17-.23.17l-.43,0-.43,0-.43,0-.43,0a.18.18,0,0,1-.2-.2c0-.59,0-1.48.07-2.67s.08-2.09.08-2.69c0-.92,0-2.2-.09-3.82-1.34.09-2.33.13-3,.13-.06,0-.09,0-.09-.08a1.64,1.64,0,0,1,.07-.41c.05-.23.09-.36.1-.4a4.9,4.9,0,0,1,.11-.76.13.13,0,0,1,.13-.1h.09c1.85.11,3.06.16,3.65.16s1.37,0,2.56-.12a6.76,6.76,0,0,0,1-.08c.14,0,.22.05.23.15a6.33,6.33,0,0,0,0,.75,2.14,2.14,0,0,0,0,.32C379.39,424.66,379.4,424.77,379.4,424.84Z"/><path class="cls-1" d="M387.75,432.76a1.29,1.29,0,0,1-.07.36c0,.2-.07.31-.08.36s-.05.46-.11.82a.2.2,0,0,1-.2.14l-.3,0a21.6,21.6,0,0,0-3-.14l-1.72,0-1.72,0c-.17,0-.25-.08-.25-.23,0-.58,0-1.46.09-2.63s.1-2,.1-2.63,0-1.7-.09-3.32c0-.41,0-1-.09-1.86v-.11q0-.18.21-.18l1.64,0,1.64,0,1.57,0,1.56,0c.25,0,.38.07.4.22a11.32,11.32,0,0,1,.16,1.29c0,.12-.05.17-.17.17-.44,0-1.11,0-2-.07s-1.57-.07-2-.07a1.24,1.24,0,0,0-.81.17,1.39,1.39,0,0,0-.16.85v1.16a3.08,3.08,0,0,0,0,.56c.05.16.18.24.41.24h.53c1,0,1.94,0,2.75-.05.31,0,.69,0,1.12-.08.11,0,.17,0,.17.14a7.44,7.44,0,0,1-.06.77,7.25,7.25,0,0,0-.06.77c0,.09-.08.14-.23.14l-.7-.05c-.29,0-.95,0-2,0-.86,0-1.4,0-1.63,0a.36.36,0,0,0-.36.33s0,.16,0,.6v1.16c0,.54.08.88.25,1a1.74,1.74,0,0,0,1,.17h.86c.37,0,1.39-.06,3.07-.19h.12C387.69,432.55,387.75,432.62,387.75,432.76Z"/></g></g></svg>