<svg xmlns="http://www.w3.org/2000/svg" xmlns:xlink="http://www.w3.org/1999/xlink" viewBox="0 0 1920 1080"><defs><style>.cls-1,.cls-21,.cls-25,.cls-36,.cls-7{fill:none;}.cls-2{isolation:isolate;}.cls-3{fill:#cdd5ee;}.cls-4{fill:#ecf1f9;}.cls-5{fill:#e6ecf7;}.cls-6{clip-path:url(#clip-path);}.cls-7{stroke:#dfe6f3;stroke-width:0.99px;}.cls-21,.cls-25,.cls-36,.cls-7{stroke-miterlimit:10;}.cls-8{fill:#2b751d;}.cls-9{fill:#6dcc63;}.cls-10{fill:#35832b;}.cls-11{fill:#469d3d;}.cls-12{fill:#fff;}.cls-13{opacity:0.3;fill:url(#linear-gradient);}.cls-14{fill:#a7b6d9;}.cls-15{fill:#544d7c;}.cls-16{fill:#ffc8b9;}.cls-17{fill:#101621;}.cls-18{fill:#ff9c6e;}.cls-19{fill:#eb9580;}.cls-20{fill:#ff8356;}.cls-21,.cls-36{stroke:#fff;}.cls-21{stroke-width:0.56px;}.cls-22{fill:#7686e1;}.cls-23{fill:#ff8051;}.cls-24{fill:#d8e3df;}.cls-25{stroke:#d8e3df;stroke-width:0.49px;}.cls-26{fill:#b5d3e3;opacity:0.5;}.cls-26,.cls-30{mix-blend-mode:multiply;}.cls-27{fill:#4f6bc4;}.cls-28{fill:#3d3d3d;}.cls-29{fill:#2a2b43;}.cls-30{opacity:0.2;}.cls-31{fill:#530e13;}.cls-32{fill:#54abf7;}.cls-33{fill:#c4c8d4;}.cls-34{fill:#ff8a5f;}.cls-35{fill:#e0e0e0;}.cls-36{stroke-width:0.62px;}.cls-37{fill:#354f81;}</style><clipPath id="clip-path"><rect id="SVGID" class="cls-1" x="264.39" y="792.4" width="1612.07" height="281.93" transform="translate(2140.85 1866.72) rotate(-180)"/></clipPath><linearGradient id="linear-gradient" x1="245.94" y1="827.98" x2="445.44" y2="1133.16" gradientTransform="translate(400.92 -697.59) rotate(24.97)" gradientUnits="userSpaceOnUse"><stop offset="0" stop-color="#fff"/><stop offset="1" stop-color="#fff" stop-opacity="0"/></linearGradient></defs><g class="cls-2"><g id="Layer_1" data-name="Layer 1"><rect class="cls-3" y="-0.39" width="1920" height="1080.39" transform="translate(1920 1079.61) rotate(-180)"/><rect class="cls-4" y="-3" width="1920" height="793.5"/><rect class="cls-3" x="431.34" y="199.78" width="152.9" height="193.86"/><rect class="cls-5" x="442.07" y="213.38" width="131.45" height="166.66"/><rect class="cls-3" x="603.21" y="199.78" width="81.82" height="84.24"/><rect class="cls-5" x="611.73" y="208.56" width="64.77" height="66.69"/><rect class="cls-3" x="604.15" y="293.9" width="101.49" height="121.22"/><rect class="cls-5" x="613.25" y="304.76" width="83.3" height="99.5"/><rect class="cls-3" x="451.67" y="227.04" width="36.9" height="32.61"/><rect class="cls-3" x="451.67" y="311.12" width="9.47" height="8.37"/><rect class="cls-3" x="464.89" y="311.12" width="101.3" height="8.37"/><rect class="cls-3" x="451.67" y="325.34" width="9.47" height="8.37"/><rect class="cls-3" x="464.89" y="325.34" width="101.3" height="8.37"/><rect class="cls-3" x="451.67" y="339.56" width="9.47" height="8.37"/><rect class="cls-3" x="464.89" y="339.56" width="101.3" height="8.37"/><rect class="cls-3" x="451.67" y="353.77" width="9.47" height="8.37"/><rect class="cls-3" x="464.89" y="353.77" width="101.3" height="8.37"/><rect class="cls-3" x="451.67" y="272.07" width="60.32" height="32.61"/><rect class="cls-3" x="518.48" y="272.07" width="47.77" height="32.61"/><rect class="cls-3" x="493.63" y="227.04" width="74.74" height="4.71"/><rect class="cls-3" x="493.63" y="234.87" width="74.74" height="4.71"/><rect class="cls-3" x="493.63" y="242.7" width="46.37" height="4.71"/><rect class="cls-3" x="493.63" y="250.53" width="46.37" height="4.71"/><rect class="cls-3" x="621.73" y="315.02" width="29.43" height="26.01"/><rect class="cls-3" x="655.19" y="315.02" width="33.41" height="3.76"/><rect class="cls-3" x="655.19" y="321.26" width="33.41" height="3.76"/><rect class="cls-3" x="655.19" y="327.51" width="20.73" height="3.76"/><rect class="cls-3" x="655.19" y="333.75" width="20.73" height="3.76"/><rect class="cls-3" x="621.73" y="348.81" width="29.43" height="26.01"/><rect class="cls-3" x="621.73" y="380.05" width="67.48" height="16.77"/><rect class="cls-3" x="655.19" y="348.81" width="33.41" height="3.76"/><rect class="cls-3" x="655.19" y="355.06" width="33.41" height="3.76"/><rect class="cls-3" x="655.19" y="361.3" width="20.73" height="3.76"/><rect class="cls-3" x="655.19" y="367.55" width="20.73" height="3.76"/><rect class="cls-3" x="637.18" y="214.58" width="13.88" height="13.88"/><rect class="cls-3" x="618.81" y="235.91" width="10.16" height="10.16"/><rect class="cls-3" x="638.5" y="235.91" width="10.16" height="10.16"/><rect class="cls-3" x="659.28" y="235.91" width="10.16" height="10.16"/><rect class="cls-3" x="618.81" y="255.06" width="10.16" height="10.16"/><rect class="cls-3" x="638.5" y="255.06" width="10.16" height="10.16"/><rect class="cls-3" x="659.28" y="255.06" width="10.16" height="10.16"/><path class="cls-3" d="M643.16,228.33a44.52,44.52,0,0,0,.6,8c0,.18.33.14.32,0-.16-2.66-.54-5.29-.64-7.95,0-.17-.28-.18-.28,0Z"/><path class="cls-3" d="M625,237.11a3.26,3.26,0,0,1,.07-3.67c.89-1.24,2.64-1.52,4-1.74a59,59,0,0,1,10.21-.23l10.23.18c3.37,0,6.76,0,10.14.16a2.86,2.86,0,0,1,2.27.88,3.67,3.67,0,0,1,.67,1.66,15.3,15.3,0,0,0,.74,3.75c.08.19.36.05.32-.13-.28-1.27-.34-2.56-.6-3.83a3.28,3.28,0,0,0-1.72-2.53,5.33,5.33,0,0,0-2.1-.34l-3-.05-5.74-.11-11.47-.19c-3.62-.06-7.35-.34-10.93.4-1.48.31-3,.84-3.76,2.29a3.77,3.77,0,0,0,.23,3.73c.16.24.55,0,.39-.23Z"/><path class="cls-3" d="M623.37,245.2q0,3.06.17,6.13a51.33,51.33,0,0,0,.48,5.93c0,.2.35.15.35-.05,0-2-.28-4-.38-6s-.14-4-.15-6a.24.24,0,0,0-.47,0Z"/><path class="cls-3" d="M623.75,250a54,54,0,0,1,11.78-.14c1.59.16,3.53.41,4.51,1.84s.68,3.15,1.28,4.64a.23.23,0,0,0,.45-.12c-.28-1.59-.33-3.52-1.31-4.87a5.56,5.56,0,0,0-4-1.89,44.94,44.94,0,0,0-12.74.2c-.19,0-.15.36,0,.34Z"/><path class="cls-3" d="M664.76,245q-.24,2.9-.37,5.81a43.5,43.5,0,0,0-.07,5.82.24.24,0,0,0,.48,0c.17-1.92.1-3.89.16-5.82s.17-3.87.3-5.81c0-.32-.47-.32-.5,0Z"/><path class="cls-3" d="M878.25,245.62a0,0,0,0,0,0-.08,0,0,0,0,0,0,.08Z"/><rect class="cls-4" x="0.12" y="752.37" width="1835.88" height="40.74"/><g class="cls-6"><line class="cls-7" x1="889.96" y1="761.55" x2="597.44" y2="1393.94"/><line class="cls-7" x1="1090.48" y1="761.55" x2="963.09" y2="1412.41"/><line class="cls-7" x1="1307.51" y1="761.55" x2="1298.07" y2="1433.18"/><line class="cls-7" x1="1526.9" y1="761.55" x2="1684.95" y2="1433.18"/><line class="cls-7" x1="1758.08" y1="775.39" x2="2048.24" y2="1400.87"/><line class="cls-7" x1="637.54" y1="793.86" x2="281.33" y2="1380.1"/><line class="cls-7" x1="370.97" y1="754.62" x2="-20.63" y2="1333.94"/><line class="cls-7" x1="1899.62" y1="920.8" x2="241.22" y2="920.8"/><line class="cls-7" x1="1899.62" y1="1028.23" x2="241.22" y2="1028.23"/></g><path class="cls-8" d="M349,445.87c-2.14,1-7.73-1.05-10.15-1.39a59.22,59.22,0,0,0-9.69-.42,72.78,72.78,0,0,0-19.48,3.27c-12.51,3.89-24.22,11.18-32.2,21.69-10,13.18-10.63,26.78-10.81,42.52a71.62,71.62,0,0,0,.77,11.89c.18,1.2,1.45,10.22,2.62,10.39a1.84,1.84,0,0,0,1.47-.72c6-5.85,8.2-14.27,12.44-21.28,2.45-4.06,5.8-7.61,8.53-11.54,6.52-9.39,13.14-18.71,19.75-28l9.3-13.11Z"/><path class="cls-9" d="M271.18,629.87V712.1H273V629.87c0-65.39,14.14-116.53,44.8-153.07l-.64.38C286.24,514.09,271.18,564,271.18,629.87Z"/><path class="cls-10" d="M257.48,662.51a59.47,59.47,0,0,1,8.45,31.42v18.14h1.85V693.93c0-2.12-.09-4.19-.28-6.23a62.3,62.3,0,0,0-1.73-10.16,57.82,57.82,0,0,0-6.71-16Z"/><path class="cls-11" d="M278,567.84c.07-3.89,2.22-8.57,3.25-12.4q1.77-6.62,3.46-13.27A112.87,112.87,0,0,1,293,520.52c2.64-5.51,6.05-10.46,8.7-16,1.22-2.55,2.45-5.1,3.9-7.52,2.62-4.34,5.67-8,7.9-12.52a43.71,43.71,0,0,1,9.1-12.43A134.93,134.93,0,0,0,334.35,460,92,92,0,0,1,349,445.87c-2.12,1.67-8.85,1.67-11.59,2.32-4.05,1-8.06,2.08-12,3.37-2.78.91-5.51,1.24-8.1,2.7s-4.87,3.54-7.32,5.26c-4.65,3.24-10,5.31-15,7.89-6.29,3.22-14.22,9.22-16.48,16-2.52,7.53-7.9,13.19-9.54,21.14-1.72,8.29-1.45,16.83-.29,25.17L270.32,542a68,68,0,0,0,3,13.37C274.48,558.7,278.09,564.42,278,567.84Z"/><path class="cls-10" d="M138.13,656.4c.86-3.83,5.28-8.28,7.75-11.28a47.43,47.43,0,0,1,10.69-9.9c3.32-2.14,7-3.69,10.44-5.58,7.44-4.07,14.28-9.82,22.64-11.23,4.92-.83,10-.06,14.89.7,8.38,1.31,16.84,2.64,24.76,5.71s15.33,8.07,19.79,15.29c6.65,10.76,12.31,22.33,15.78,34.55-8.18-12.21-44.76-27.09-44.76-27.09l-26.9-1-21.87,3.75-12.92,2.76c-3,.64-6.07,1.06-9.1,1.59C145.94,655.27,141.47,656.83,138.13,656.4Z"/><path class="cls-11" d="M264.87,674.66c-.82-1.29-1.1-3.38-1.68-4.8a39.33,39.33,0,0,0-5.69-9.51c-5.22-6.73-9.79-13.1-16.64-18.38a39.51,39.51,0,0,0-8.1-5,54.1,54.1,0,0,0-7.7-2.51c-7.8-2.11-15.76-4.25-23.82-3.77-2.93.17-5.83.69-8.76.86-2.38.14-4.78.05-7.15.29-4.36.44-8.52,2-12.62,3.51l-12.13,4.51a28.67,28.67,0,0,0-7.32,3.55c-5.38,4-9.7,9.24-15.22,13.23,1.3-.95,6.19-.71,7.92-1,3.37-.54,6.75-1.06,10.15-1.4,6.92-.7,14-.74,20.77,1a53.1,53.1,0,0,0,6.89,1.65,35.85,35.85,0,0,0,8.76-.52c12.18-1.62,24.64-1.78,36.71.55a80.87,80.87,0,0,1,19.13,6.13C254,665.71,261.43,669.27,264.87,674.66Z"/><path class="cls-8" d="M348.77,529.26c0,.45-.06.91-.08,1.34l-.07.77a75.81,75.81,0,0,1-2.45,14.23,46.19,46.19,0,0,0-1.29,9.67,122.87,122.87,0,0,1-14,34.89c-4.69,4.88-9.95,9.28-14.17,14.59-1.71,2.17-3.24,4.49-5,6.66a44.23,44.23,0,0,1-8.23,8,94.38,94.38,0,0,1-14.34,8c-.73.33-1.5.65-2.26,1,1-.43-.87-11.66-.95-12.91a51.49,51.49,0,0,1,.72-13.69c.61-2.91,1.58-5.73,2.3-8.61,2.1-8.4,2.18-17.57,6.77-24.91,3-4.8,7.68-8.36,10.76-13.1.86-1.33,1.59-2.75,2.45-4.08a22.94,22.94,0,0,1,4.78-5.15c1.52-1.25,2.85-2.68,4.35-3.92,1.92-1.59,4.52-2.57,6.64-3.91a41.81,41.81,0,0,0,6.28-4.81c1.29-1.24,2.48-2.59,3.85-3.74a30.14,30.14,0,0,1,7-4.15,23.27,23.27,0,0,0,3.07-1.66c1-.67,3.3-1.32,4-2.29C348.11,522.56,348.86,527.8,348.77,529.26Z"/><path class="cls-9" d="M278.13,712.07c.63,0,1.25,0,1.85,0,.08-4.29.17-8.53.26-12.64.42-17.95,1-33.6,1.86-42.43,4-42,31.68-83.48,59.65-122.35l-1.5-1.09c-28.12,39.08-55.92,80.79-60,123.27-.85,8.86-1.43,24.57-1.85,42.57C278.3,703.48,278.2,707.74,278.13,712.07Z"/><path class="cls-11" d="M348.77,529.24v0c0,.45-.06.91-.08,1.34l-.07.77a75.81,75.81,0,0,1-2.45,14.23,46.19,46.19,0,0,0-1.29,9.67,68.22,68.22,0,0,1-.86,9.26,48.89,48.89,0,0,1-6.51,17.5,51.14,51.14,0,0,1-6.62,8.13c-4.69,4.88-9.95,9.28-14.17,14.59-1.71,2.17-3.24,4.49-5,6.66a44,44,0,0,1-8.21,8,0,0,0,0,1,0,0,68.36,68.36,0,0,1-14.34,8c-.73.33-1.5.65-2.26,1,11.25-37.94,62-106.93,62-106.93C348.11,522.56,348.86,527.8,348.77,529.24Z"/><path class="cls-8" d="M258.87,599.89C182.76,568.25,186,474.34,186,474.34c5.3,3,9.84,7.07,15.35,9.85s11.69,5.05,16,9.59c2,2.1,3.5,4.6,5.33,6.83,6.2,7.6,15.85,12,21.22,20.21,4.44,6.79,5.34,15.27,8.67,22.67,1.54,3.42,3.6,6.61,4.74,10.19s1.3,7.54,1.43,11.37C259.15,576.72,258.76,588.23,258.87,599.89Z"/><path class="cls-9" d="M212.83,519.7c23.9,33.23,47.55,68.67,51,104.6,1,10.69,1.63,31.75,1.95,53.24.13,7.36.2,14.77.28,21.82,0,4.4.06,8.67.09,12.71h1.6c0-4.05-.07-8.32-.11-12.74,0-3.8-.08-7.7-.13-11.64-.29-24.8-.89-51.15-2.1-63.55-3.49-36.32-27.24-72-51.29-105.36a.79.79,0,0,0-1.11-.19A.78.78,0,0,0,212.83,519.7Z"/><path class="cls-11" d="M258.87,599.89c-2.89-1.2-5.89-2.13-8.73-3.34-2.69-1.15-4.81-3.35-7.27-4.89-3.07-1.92-6.66-2.91-9.75-4.82a38,38,0,0,1-7.73-7l-9.87-10.75a74,74,0,0,1-7.61-9.26,41.54,41.54,0,0,1-5.74-12.62c-1-4.24-2.94-7.69-4.83-11.66-2.46-5.15-3.4-10.36-4.6-15.94-.57-2.66-1.14-5.32-1.94-7.92-.71-2.33-1.61-4.59-2.37-6.9-1.94-5.83-3.39-12-2.74-18.18.35-3.31,2.53-9.3.34-12.28C186.19,474.55,245.67,555.43,258.87,599.89Z"/><polygon class="cls-12" points="272.12 705.88 326.89 705.88 313.67 794.3 272.12 794.3 230.56 794.3 217.34 705.88 272.12 705.88"/><rect class="cls-3" x="347.85" y="-0.39" width="6.6" height="128.97"/><path class="cls-12" d="M328.41,157.45l46.83.37a24.77,24.77,0,0,1-46.83-.37Z"/><path class="cls-3" d="M395.27,159.8l-87.9-.36a4.18,4.18,0,0,1-3.72-6.05,53.09,53.09,0,0,1,95.39.39A4.19,4.19,0,0,1,395.27,159.8Z"/><polygon class="cls-13" points="306.5 160.48 6.45 682.78 694.26 684.21 394.24 155.25 306.5 160.48"/><rect id="SVGID-2" data-name="SVGID" class="cls-1" x="0.29" y="-3" width="1074.71" height="1074.71" transform="translate(1075.29 1068.71) rotate(-180)"/><rect class="cls-14" x="219.95" y="715.44" width="558.94" height="57.98" transform="translate(998.85 1488.86) rotate(-180)"/><rect class="cls-15" x="775.08" y="705.05" width="7.62" height="276.92" transform="translate(1557.79 1687.01) rotate(-180)"/><rect class="cls-15" x="216.14" y="705.05" width="7.62" height="276.92" transform="translate(439.9 1687.01) rotate(-180)"/><path class="cls-16" d="M202.76,723.45c7.85,6.68,30,2.39,40.06,2.39H741c16.71,0,59.86,6.81,66.65-12.64,3-8.48-3.54-17.9-11.79-21.45s-17.63-2.83-26.59-2.19c-81.19,5.83-162.69-.4-244-3.81-70.55-3-141.17-3.81-211.78-4.65-27.82-.33-55.86-.64-83.17,4.66-10.19,2-20.93,5.18-27.45,13.26C197.92,705.16,196,717.68,202.76,723.45Z"/><path class="cls-17" d="M359.94,621.42a146.15,146.15,0,0,0-31.14,54.22c-1.85,5.86-.29,15,1.46,20.79,3.92,13.11,10.32,22.33,22.59,25.17,5.61,1.29,11.4,1.1,17.13.9,13.86-.48,35.24-16.63,50.43-16.58,22.3.07,38.63,16.19,58.83,13.25,8.07-1.17,10-7,15.36-13.76,6.36-8.12,11-23.12,8.51-33.47-5.93-24.42-38.82-40.22-42.13-60.1"/><path class="cls-17" d="M440.92,368.31s3.58,26-6.69,31.38c-8.17,4.25-4.05-26.75-4.05-26.75"/><path class="cls-18" d="M378.94,453s6.9,6.62,9.66,13c12.81,2.86,20.06,3.14,29.1.39,5.25-1.61,15.12-8,15.83-12-2-3.73-8.56-4.51-11.33-5.51a8.8,8.8,0,0,1-2.49-.59l-.1-.09a1.79,1.79,0,0,1-.81-.88,14,14,0,0,1-.81-3.67c-.06-.79,0-1.64,0-3.18-.11-3.81-.14-8-.14-8l-7.28-3.62-29.33-23,.56,8.71s3.33,25.12,1.46,36.32C383.06,451.87,379.73,452.4,378.94,453Z"/><path class="cls-19" d="M396.92,425.77s3.35,12.09,21.07,17.92c-.06-.79,0-1.64,0-3.18-.11-3.81-.14-8-.14-8l-7.28-3.62Z"/><path class="cls-18" d="M437.86,407.11c0,.38,0,.77-.06,1.16-.35,7.17-1,17.62-5.52,22.73-5,5.69-9.86,5.09-17.36,4a54,54,0,0,1-18.34-6.58,34.89,34.89,0,0,1-10.53-8.94c-2.71-3.68-7.38-4.47-9.2-8.61-5.41-12.19-1-23.07,8.14-32.83,8.41-9,33.79-21,46-16.52C438.7,364.34,438.4,395.57,437.86,407.11Z"/><path class="cls-17" d="M431.37,376.45l-.15.06a57.16,57.16,0,0,1-21,4.13c-2.67,0-5.35.55-8,.33-1.58-.12-4.39-1.52-5.84-.46-1.82,1.33-.45,9.44-.56,11.54-.29,4.87-1.07,10-2.8,13-1.59,2.8-1.27-10.11-8.27-11.45-4.33-.82-1,18.14-3.35,19.42a168.31,168.31,0,0,1,2.32,24.89c-3.58,2.71-3.91-15.7-6.92-19s-19.24-22.55-21-33.32c-1.91-11.85,3-20.69,13.77-22.21-3-7.39,2.91-14.76,9.57-17.73s16.22-5.34,27,0c.74.36,5.95-2.08,7-2.34a46.14,46.14,0,0,1,7.76-1.25c5-.36,10.29.05,14.85,2.25,10.42,5,10.82,20.32,2.63,27.93A23.13,23.13,0,0,1,431.37,376.45Z"/><path class="cls-20" d="M423.47,395.41c.91,3.28,1.76,6.52,2.79,9.71.13.39.24.82.38,1.15s.35.77.49,1.21a2.78,2.78,0,0,1,.14.75,1.45,1.45,0,0,1-.25.86,3.13,3.13,0,0,1-1.15.86,19.8,19.8,0,0,0-3.84,3.17,12.73,12.73,0,0,1,3.42-3.83,2.8,2.8,0,0,0,.83-.68.52.52,0,0,0,.08-.34,1.79,1.79,0,0,0-.13-.49c-.13-.35-.3-.72-.48-1.12s-.3-.84-.44-1.24A38.43,38.43,0,0,1,423.47,395.41Z"/><path class="cls-17" d="M409.71,393.35a1.09,1.09,0,0,0-.14.43,1.89,1.89,0,0,0,.06.47l.06.31,0,.16c0,.13,0-.08,0,0a12.62,12.62,0,0,1,.1,1.37,4,4,0,0,1-.13,1.12c0,.06,0,.06,0,0a.54.54,0,0,1-.05.11l-.06.1c0-.05.05,0,0,0s.06,0,0,0,.07,0,.09,0,.23,0,0,0h-.17c-.11,0-.11,0,0,0l.41.17,0,0q0-.09,0,0a2.25,2.25,0,0,1-.08-.24,4.25,4.25,0,0,1-.14-.51,3.78,3.78,0,0,1,0-.9,3.57,3.57,0,0,1,.6-1.77l-.66.27c.12,0,0,0,0,0l.09.13a.56.56,0,0,0,1-.28,1,1,0,0,0-.82-1,.6.6,0,0,0-.66.27,5,5,0,0,0-.46,4.25,2.11,2.11,0,0,0,.31.57c0,.06,0,0,0,0s0,.06.11.17a.87.87,0,0,0,.37.19,1.15,1.15,0,0,0,1.11-.41,3.56,3.56,0,0,0,.61-2.32,6.84,6.84,0,0,0-.11-1.43c0-.21-.08-.42-.13-.63a1.12,1.12,0,0,0-.53-.77.57.57,0,0,0-.77.21Z"/><path class="cls-17" d="M429.9,394.64c.08.26.15.51.25.76a4,4,0,0,1,.2.67,4.18,4.18,0,0,1,0,1.32,3.67,3.67,0,0,1-.18.67,1.21,1.21,0,0,1-.11.19s.24,0,.14,0l0,0,0,0a2.07,2.07,0,0,1-.37-1.15,2.85,2.85,0,0,1,.29-1.22,2.26,2.26,0,0,1,.16-.26s.12-.16,0-.07l.13-.13c.09-.11,0,0,0,0s-.19,0-.27-.09.05.09,0,0l.05.1c0-.07,0-.07,0,0a4.17,4.17,0,0,1,.2,1.65,2.57,2.57,0,0,1-.13.65c0-.13,0,0,0,.05s0,0,0,0,.06,0,.07,0,.25,0,.22.05-.13-.16-.06,0a2.12,2.12,0,0,1-.11-.21v0l-.08-.24c0-.07,0-.13,0-.19a.69.69,0,0,1,0-.13c0,.06,0,.05,0,0a2.54,2.54,0,0,1,0-.39s0-.21,0-.09a2.21,2.21,0,0,1,0-.25c0-.13.07-.25.11-.37s-.05.09,0-.08l.12-.23c.08-.13.13-.27.21-.4a.61.61,0,0,0-.95-.73,3.12,3.12,0,0,0-.83,2.12,2.91,2.91,0,0,0,.63,2.15,1.08,1.08,0,0,0,1.32.23,1.51,1.51,0,0,0,.66-.95,5,5,0,0,0,0-2.53,1.79,1.79,0,0,0-.65-1.11,1.06,1.06,0,0,0-1.32.17,3.2,3.2,0,0,0-.87,2,3.81,3.81,0,0,0,.39,2,1.44,1.44,0,0,0,.75.8.93.93,0,0,0,1.07-.47,3.71,3.71,0,0,0,.46-2.35,4.56,4.56,0,0,0-.34-1.16,1.91,1.91,0,0,0-.77-.89.29.29,0,0,0-.43.32Z"/><path class="cls-17" d="M412.65,386.09C411,384,408.22,384,405.79,384a25.71,25.71,0,0,0-4.2.37,8.34,8.34,0,0,0-3.9,1.59c-.24.2,0,.66.32.54a16.53,16.53,0,0,1,7.57-1.62c2.19,0,5.08-.21,6.71,1.54.23.24.55-.11.36-.36Z"/><path class="cls-17" d="M428,386.23a10.29,10.29,0,0,1,5.24-1.43,9,9,0,0,1,2.66.46c.83.28,1.6.84,2.46,1.05a.17.17,0,0,0,.19-.25,4.33,4.33,0,0,0-2.37-1.53,9.82,9.82,0,0,0-2.94-.51,8.1,8.1,0,0,0-5.52,1.85c-.2.18.05.49.28.36Z"/><path class="cls-21" d="M388,396.75s5.92,14.62,15,15.3"/><path class="cls-21" d="M381.7,413S388,424.72,399,428.86"/><path class="cls-12" d="M438,404.54c0,6-.14,20.13-5.72,26.46-5,5.68-9.86,5.09-17.36,4a54,54,0,0,1-18.34-6.58,30.35,30.35,0,0,0,2.49-17.49s10.8-2.12,17.78-4,9.76-2.58,12.57-3S436,404.5,438,404.54Z"/><path class="cls-18" d="M390.28,399.12a11.06,11.06,0,0,0-3.17-4.43,6.86,6.86,0,0,0-10.26,3.14c-3,6.29,4.35,24.14,11.12,16.88C393.32,409,391.87,402.84,390.28,399.12Z"/><path class="cls-18" d="M380.26,399.25a3.54,3.54,0,0,1,5.5-.71c2.74,2.18,3.34,10.75,0,12.34s-6.14-2.53-4.18-6a2.48,2.48,0,0,1,1.49-1.25,2.67,2.67,0,0,0,1.15-4.72A3.63,3.63,0,0,0,380.26,399.25Z"/><path class="cls-18" d="M469.61,894.24c-1.16,6.38-6.2,15.29-6.2,15.29l.39,13.5,7.21,3.21,20.4-17.72s1.23-10.25.86-10Z"/><path class="cls-17" d="M527.5,948.05c-3.18,2.67-17.75,3.3-27.16,1.69S482,941.87,478.2,939.66s-19.63-3.6-21.07-5.9a3.57,3.57,0,0,1-.05-3.72,4.57,4.57,0,0,1,.44-.63c-.32-8.2,3.37-20.37,4.88-20.79s1.54,4.9,2.47,6.76,4.2,4.44,8.68,2.53,6.25-8,11.39-9.08,7.27-.07,7.27-.07c5.37,3.44,13.47,15.47,19.26,20.35s14.5,8.55,16,10.08.77,4.95.77,4.95l.12.07C528.82,944.49,530.24,945.72,527.5,948.05Z"/><path class="cls-17" d="M536,694.06c-.1-29.72-49.62-48.65-49.62-48.65L441.53,672s-2,37.5,14.9,43.87a82.31,82.31,0,0,1,15.14,7.48c-.54,3.79-1,7.62-1.31,11.42-3.54,38.45-2.65,77.23,1,115.71-.12,8-.25,15.8-.48,22.71a232.18,232.18,0,0,1-3,27.1c13.09,7.34,24.16,3.47,24.16,3.47s37.37-125.46,37.37-161.37v-.12C533.09,724.28,536.06,706.42,536,694.06Z"/><path class="cls-12" d="M527.5,948.05c-3.18,2.67-17.75,3.3-27.16,1.69S482,941.87,478.2,939.66s-19.63-3.6-21.07-5.9a3.57,3.57,0,0,1-.05-3.72c4.28.37,8.81,1.58,10.62,1.74,2.51.21,5.11.12,7.46,1.05a20.54,20.54,0,0,1,4.88,3.32A51,51,0,0,0,524.92,945a17.09,17.09,0,0,1,3.49-.79C528.82,944.49,530.24,945.72,527.5,948.05Z"/><path class="cls-4" d="M461.64,631.32c8.51,5.1,17.1,10,25.31,15.59a218.45,218.45,0,0,1,23.71,18.51c7,6.3,13.28,13.47,16.52,22.43a24.67,24.67,0,0,1,1.56,10,95.36,95.36,0,0,1-1.41,11c-.58,3.43-1.26,6.83-1.85,10.25-.73,4.2-1.2,8.45-1.79,12.67q-2.25,15.87-5,31.67c-3.6,21.16-7.74,42.24-12.14,63.25s-9.06,41.92-13.67,62.86l-1.74,7.91c-.07.33.44.47.51.14,4.78-21.36,9.57-42.72,14.12-64.13,4.52-21.25,8.8-42.56,12.55-64q2.82-16,5.2-32.13c1.23-8.34,2.33-16.66,3.85-25,.66-3.64,1.3-7.3,1.71-11a31.42,31.42,0,0,0,.11-9c-1.57-8.67-7.08-16.6-13.09-22.82a168.75,168.75,0,0,0-22.37-18.77,285.07,285.07,0,0,0-25.45-16.35c-2.15-1.23-4.3-2.41-6.51-3.53a.18.18,0,0,0-.18.31Z"/><path class="cls-12" d="M476.23,623.1a25.08,25.08,0,0,1,.6,4.64c.05.86-.31,9.86-.32,9.86a91,91,0,0,0-56.07-1.11A70.18,70.18,0,0,1,386,637.73,72.12,72.12,0,0,1,369.29,632c-1.77-.86-14.48-7.09-14.13-9.14,1.41-8.32,3.95-16.45,6.26-24.56,1.72-6.07,3.12-12.18,4.23-18.24,6.46-34.82,4-67.87,4.82-83.09,1.92-34.78,9.19-44.4,9.43-44.7l3.58,1.55a46,46,0,0,0,43.26-3.71s1.73,2,4.44,8.49c.85,2.05,1.8,4.57,2.84,7.62a260.58,260.58,0,0,1,7.39,27.93c6.18,28.9,10.62,75.9,15.56,89.76,3.39,9.52,8.28,18.56,13.17,27.39,1.56,2.83,3.35,5.57,4.84,8.44A14.82,14.82,0,0,1,476.23,623.1Z"/><path class="cls-22" d="M370.47,497c-1,17.88,2.6,60.3-9.05,101.33-1.44,5.1-2.69,9.23-3.76,12.62a98.17,98.17,0,0,1-4.85,13.11c-1.63.78-3.17,1.57-4.62,2.34-2.28,1.21-7.91,6.16-10.63,4.94a4.65,4.65,0,0,1-1.89-1.84c-2.72-4.13-1.15-8.5-.42-13q.33-2.06.66-4.23c.67-4.32,1.33-9,2-14,2.24-17.41,4.05-37.86,3.37-55.16A152.18,152.18,0,0,0,331.92,496c-3-8.44-5.18-13.9-3.94-17.62a5.09,5.09,0,0,1,1.18-1.7c3.49-3.67,13.65-8.82,24.5-13.63,9.58-4.26,19.7-8.27,26.22-10.78C379.66,452.59,372.39,462.21,370.47,497Z"/><path class="cls-22" d="M480.82,625.05c.5,6.19-.37,12.18-5.94,16.08a15.22,15.22,0,0,1-7-6.76,43.11,43.11,0,0,1-3.5-9.24c-2.36-8-3-16.32-4.54-24.56-3.25-16.91-6.91-33.65-9.44-50.7-2.77-18.59-5.08-37.31-9-55.7-3.87-18-7.53-29.05-10.23-35.55-2.63-6.3-4.34-8.37-4.43-8.48,4.8,1.78,13.17,5,21.8,8.75,11.33,4.93,23.13,10.8,28,15.65a16,16,0,0,1,1.84,2.16c3.24,4.62,2.19,9.21,0,15.11-2.4,6.59-6.18,14.81-6.94,26.52a157.82,157.82,0,0,0,.12,16.26c.36,7.59,1,16.48,1.83,25.65s1.72,18.31,2.65,26.94c.42,4.08.86,8,1.27,11.68.08.78.16,1.54.25,2.29.41,3.69.81,7.07,1.17,10.08C479.24,615.37,480.44,620.27,480.82,625.05Z"/><path class="cls-18" d="M498.06,635s2.29,15.14-9.2,30.77c-2.89,8.53-.75,14.53-8.78,19.35-2.18,4.46-3.18,8.46-6.28,6.92-2.75,3.11-5.57,5.29-7.28-1.21-3,3-7.5-1.57-6.32-23.88.1-9.53,5-18.68,21.24-35.68A15.55,15.55,0,0,1,498.06,635Z"/><path class="cls-18" d="M461.15,660.19s-8.66,8.45-5.92,11.41c2.24,1.15,4.83-1.5,4.83-1.5S480.15,651.39,461.15,660.19Z"/><path class="cls-23" d="M466.52,690.8A82.34,82.34,0,0,1,465,679.64c-.14-1.87-.24-3.75-.23-5.63,0-.94,0-1.89.08-2.83.06-.47.09-.94.17-1.41l.12-.7c.06-.23.16-.46.24-.68a11.84,11.84,0,0,0,0,2.79l.22,2.8.46,5.58C466.27,683.3,466.53,687,466.52,690.8Z"/><path class="cls-23" d="M473.8,692a85.09,85.09,0,0,1-1.42-11.67c-.1-2-.16-3.93-.12-5.89a27,27,0,0,1,.64-5.87c-.07,2,.1,3.9.19,5.85l.35,5.85C473.65,684.18,473.85,688.08,473.8,692Z"/><path class="cls-23" d="M480.08,685.09a41.78,41.78,0,0,1-.61-10.11,30.76,30.76,0,0,1,.66-5.05,14.93,14.93,0,0,1,1.78-4.77,27.7,27.7,0,0,0-1,4.91c-.2,1.64-.33,3.3-.41,5s-.17,3.33-.23,5S480.16,683.4,480.08,685.09Z"/><path class="cls-22" d="M505.16,619.21c-.1.41-.19.82-.3,1.23-5.29,21.56-8,28.42-8,28.42-3.74,0-23.66-8.54-23.66-8.54l2-20.15.47-4.71,1.64-16.6,2.4-24.29s-2.54-5.93-6.32-14.33C465.76,543.2,453,516.05,446,508l25.95-25.06,6.43-6.22c15.09,19.18,30.21,54.43,33.43,90.82C513.08,582,509.17,602.7,505.16,619.21Z"/><path class="cls-18" d="M338.8,633s5.61,13.17,22.43,20c6.49,5.37,7.73,11.2,16.49,11.09,3.92,2.48,6.68,5.17,8.4,2.43,3.71,1.12,7,1.47,5.2-4.54,3.91.92,5.2-4.93-6.69-22.11-4.77-7.54-13.2-12.4-34.43-18A14.55,14.55,0,0,0,338.8,633Z"/><path class="cls-18" d="M380.56,634.94s11,2.47,10.31,6.17c-1.21,2-4.58,1.18-4.58,1.18S361.11,637.27,380.56,634.94Z"/><path class="cls-23" d="M391.32,661.94c-1.89-3-3.52-6.08-5.14-9.18l-2.37-4.68-1.18-2.33a11.77,11.77,0,0,0-1.36-2.23c.16.13.35.26.52.41l.44.5c.3.33.56.69.84,1,.51.72,1,1.45,1.46,2.21.93,1.49,1.78,3,2.59,4.59A73.38,73.38,0,0,1,391.32,661.94Z"/><path class="cls-23" d="M386.12,666.48c-2-3.1-3.76-6.3-5.51-9.5L378,652.15c-.88-1.6-1.69-3.23-2.7-4.76a24.61,24.61,0,0,1,3.41,4.34c1,1.54,1.92,3.13,2.8,4.74A76,76,0,0,1,386.12,666.48Z"/><path class="cls-23" d="M377.72,664.05c-.91-1.3-1.81-2.59-2.67-3.89s-1.75-2.6-2.65-3.87-1.8-2.54-2.77-3.75a25.06,25.06,0,0,0-3.16-3.45,13.52,13.52,0,0,1,3.78,2.9,29.48,29.48,0,0,1,3,3.69A38.63,38.63,0,0,1,377.72,664.05Z"/><path class="cls-22" d="M361.24,625.06a43.83,43.83,0,0,0-9.87,3.92c-3.94,2.19-7.83,5.37-9,9.72,0,0-1.92-2.25-4.67-5.9-1.25-1.68-2.69-3.64-4.18-5.82A117.24,117.24,0,0,1,323,608.92c-8.66-19.42-11.66-23.38-12-38.27a293.85,293.85,0,0,1,3.34-50.54c2.16-14.44,5.46-29.35,13.6-41.7.37-.56.74-1.11,1.14-1.66l0-.05h0l7.35,9.78,19.42,25.8c3.65,12.24-7.37,62.83-7.37,62.83l7.66,30.13.93,3.67.51,2Z"/><path class="cls-24" d="M381.34,457.06a18.57,18.57,0,0,0,2,1.31A34.55,34.55,0,0,0,388.9,461a36.81,36.81,0,0,0,19.6,1.73,43.89,43.89,0,0,0,13-4.68c.58-.32,1.15-.64,1.71-1,.08,0-.1-.2-.17-.16A45.52,45.52,0,0,1,410,462.25a37,37,0,0,1-11.3.81,36.4,36.4,0,0,1-8.88-1.87,35.45,35.45,0,0,1-5.93-2.66c-.83-.48-1.6-1-2.4-1.54l0,0c-.11-.09-.18,0-.07.09Z"/><path class="cls-25" d="M453.52,580.71s-8.73-6.78-22.48-4.24"/><path class="cls-18" d="M430.31,905.79l-.92-8.81-19.57.43,0,13.17,3.56,13.86s15.58.16,15.71-.15,3.73-15.48,3.73-15.48Z"/><path class="cls-17" d="M436.2,928.37c-2.49,10.24-11.9,8.94-10.27,18.56a11.47,11.47,0,0,1-.42,6.53c.33,3.32-1.67,4.11-1.67,4.11-16.27,6.2-31.41-1.3-31.78-3.55-.26-1.49.07-1.82.25-3.46a1.18,1.18,0,0,1,0-.26,11.08,11.08,0,0,1,.18-3.83c.93-4.44,8.69-12.9,10.41-19.4S406,914.57,408,912s8.68-3.79,14.24-2.14,6.6,5.23,8.36,2.58-.3-6.64-.3-6.64c2.86-.72,5.81,8,5.3,17.35,0,.14,0,.3,0,.44A7.16,7.16,0,0,1,436.2,928.37Z"/><path class="cls-17" d="M429.47,862.58c-.82-16.26-2.22-33.86-4.13-50.09q-3-25.51-7.3-50.84c-1.89-11.12-4-22.3-7.93-32.91-.17-.45-.35-.9-.53-1.35-2.2-10.84-5.12-21.62-10.7-30.81-6.36-10.44-16.83-18.62-28.24-18.47A15.26,15.26,0,0,0,360,682c-2.65,2.6-31.83,4.28-31,8.07,6.55,30.22,20,56.37,31,81.81q13,35.93,26.24,71.77c7.44,20.08,13.58,40.82,22.4,60.28,4.29-.14,8.47,0,12.62-.64.63-.1,11.38-1.06,11.32-2.23C432.53,901,430.61,885.28,429.47,862.58Z"/><path class="cls-12" d="M436.2,928.37c-2.49,10.24-11.9,8.94-10.27,18.56a11.47,11.47,0,0,1-.42,6.53c.33,3.32-1.67,4.11-1.67,4.11-16.27,6.2-31.41-1.3-31.78-3.55-.26-1.49.07-1.82.25-3.46a1.18,1.18,0,0,1,0-.26,19.87,19.87,0,0,0,6.53,2.07,67.78,67.78,0,0,0,18.91,1.18c4.09-.39,4.5-.18,4.43-4.18-.09-5.06.42-11.66,5.12-14.71.76-.51,1.6-.88,2.37-1.39,3.29-2.18,4.71-6.25,5.92-10a.14.14,0,0,1,.05-.09c0,.14,0,.3,0,.44A7.16,7.16,0,0,1,436.2,928.37Z"/><path class="cls-26" d="M377.92,980.94c.19,6.49,53,9.73,92.67,8.6s55.6-6.92,50.93-12.72c-7.07-8.8-32.38-7.13-72-6S377.74,974.44,377.92,980.94Z"/><path class="cls-27" d="M363.87,524.5a1.37,1.37,0,0,0,0-2.73,1.37,1.37,0,0,0,0,2.73Z"/><path class="cls-27" d="M363.29,546.94a1.16,1.16,0,0,0,0-2.31,1.16,1.16,0,0,0,0,2.31Z"/><path class="cls-27" d="M331.42,476.57a26.68,26.68,0,0,1,10.69,14.69.12.12,0,0,0,.24-.06,25,25,0,0,0-10.77-14.92c-.18-.11-.34.17-.16.29Z"/><path class="cls-27" d="M473.39,561.25c-.06-2.53-.37-5.06-.49-7.59s-.15-5.08-.14-7.62c0-5.14.21-10.27.34-15.41.24-9.45.22-19-1.51-28.31a51.73,51.73,0,0,0-4.64-14.7c-.14-.27-.61-.08-.5.2.86,2.14,1.73,4.27,2.44,6.46a67.58,67.58,0,0,1,1.74,6.68,93.32,93.32,0,0,1,1.71,13.93c.51,9.8-.13,19.62-.17,29.42,0,2.87,0,5.74.15,8.61a51,51,0,0,0,.8,8.37.14.14,0,0,0,.27,0Z"/><path class="cls-27" d="M346.69,573.79a34.32,34.32,0,0,0-16.51-4.49c-.32,0-.31.46,0,.49a48.52,48.52,0,0,1,16.29,4.38c.25.12.47-.24.22-.38Z"/><path class="cls-27" d="M346.16,570.55a26,26,0,0,0-4.13-7.76,9.78,9.78,0,0,0-6.75-3.61.26.26,0,0,0-.25.26c0,3.07,2.39,6.46,5.61,6.75.17,0,.18-.24,0-.29a7.66,7.66,0,0,1-3.64-2.34,6.42,6.42,0,0,1-1.49-4.12l-.26.25c5.86.32,8.55,6.35,10.54,11,.08.18.41,0,.34-.14Z"/><path class="cls-27" d="M455.2,561.34c1-.36,2-.77,2.95-1.18.48-.2,1-.4,1.45-.62a8,8,0,0,0,1.36-.79.15.15,0,0,0-.12-.28,7.29,7.29,0,0,0-1.52.42c-.49.19-1,.4-1.45.61-1,.42-1.94.83-2.9,1.3-.3.14-.09.66.23.54Z"/><path class="cls-27" d="M449.83,529.8a8.43,8.43,0,0,0,.87,0h.22a.39.39,0,0,0,.15,0l.07,0h0s.19,0,.21,0l.24,0a.23.23,0,0,0,0-.45l-.22,0h-.2l-.08,0h-.37c-.29,0-.58,0-.87,0a.28.28,0,0,0-.28.28.27.27,0,0,0,.28.28Z"/><path class="cls-27" d="M473.37,640.32c1-11.9,1.93-23.83,3.59-35.66.43-3.09,1-6.15,1.39-9.24,0-.24-.36-.28-.41-.06-.66,2.71-1.05,5.49-1.45,8.25q-.63,4.46-1.14,8.93c-.7,6.1-1.26,12.2-1.72,18.32-.25,3.15-.4,6.3-.55,9.46,0,.19.27.18.29,0Z"/><path class="cls-27" d="M480.16,575.5c1.84-2.1,3.38-4.45,5.2-6.57,1.47-1.72,3.54-3.65,6-3l-.2-.21a1.33,1.33,0,0,1-1.23,1.41c-.16,0-.22.27,0,.31a1.58,1.58,0,0,0,1.83-1.87.29.29,0,0,0-.2-.2c-2.44-.65-4.59,1-6.15,2.7-.94,1-1.76,2.17-2.62,3.27-1,1.3-2,2.58-2.93,3.94a.22.22,0,0,0,.35.26Z"/><path class="cls-27" d="M480.18,576.69a11.36,11.36,0,0,1,5.23-2.29,14.89,14.89,0,0,1,5.67.45.2.2,0,0,0,.15-.36,9,9,0,0,0-5.92-.77,10.59,10.59,0,0,0-5.45,2.65c-.22.2.1.5.32.32Z"/><path class="cls-27" d="M476,475.14l-.34,0,.21.16h0a.27.27,0,0,0-.25-.19h-1.16a.56.56,0,0,0-.45.12l.08-.05-.07,0a.17.17,0,0,0,0,.33l.07,0-.08-.05a.53.53,0,0,0,.44.12h1.17a.27.27,0,0,0,.25-.19h0l-.21.17.34-.05a.18.18,0,0,0,0-.35Z"/><path class="cls-27" d="M332.7,475.52a6.86,6.86,0,0,1,3.18.87,6.25,6.25,0,0,1,1.33,1,14.33,14.33,0,0,1,1.1,1.24c.17.2.44,0,.34-.26a5.93,5.93,0,0,0-2.53-2.43,7,7,0,0,0-3.42-.86.24.24,0,0,0,0,.48Z"/><path class="cls-27" d="M361.42,625c-2.11-7.3-3.75-14.72-5.69-22.06-2-7.67-5-15.14-6-23.05a74.72,74.72,0,0,1,1-22.13c1.29-7.43,3.16-14.74,4.62-22.13,1.43-7.22,2.52-14.59,2.15-22q-.08-1.41-.24-2.82c0-.32-.53-.34-.51,0a77.26,77.26,0,0,1,0,11.18,110.68,110.68,0,0,1-1.55,11.17c-1.38,7.45-3.27,14.79-4.67,22.23-1.37,7.23-2.3,14.63-1.72,22a61.16,61.16,0,0,0,2.1,11.46c1,3.82,2.35,7.56,3.44,11.37,2.09,7.36,3.67,14.87,5.9,22.2.27.89.55,1.77.85,2.65.08.23.43.14.36-.09Z"/><path class="cls-28" d="M399.71,698.57q1.23,2.91,2.51,5.8a59,59,0,0,0,2.77,5.85.14.14,0,0,0,.25-.11,56.62,56.62,0,0,0-2.39-5.83c-.88-2-1.76-3.95-2.67-5.91-.12-.25-.58-.07-.47.2Z"/><path class="cls-28" d="M472,724.73c.39-2.16.65-4.33,1.14-6.47.24-1.07.52-2.13.81-3.19a31.64,31.64,0,0,0,.91-3.16c0-.24-.29-.42-.42-.18a16.11,16.11,0,0,0-1.14,3.16c-.31,1.05-.58,2.12-.81,3.19a34.94,34.94,0,0,0-1,6.58c0,.27.42.34.47.07Z"/><path class="cls-4" d="M351.63,650.92c-4,7.35-8.05,14.87-10,23.08a41.31,41.31,0,0,0-1.13,12.18A58.08,58.08,0,0,0,343,698.9c2.43,8.18,5.7,16.13,8.68,24.13s6,16.06,9,24.08q9.14,24.52,18.1,49.11,9,24.84,17.6,49.84c5.53,16.19,10.85,32.44,15.83,48.8.59,2,1.19,3.91,1.77,5.87a.28.28,0,0,0,.54-.15c-4.73-16.08-9.86-32-15.19-47.94q-8.31-24.78-17.23-49.36t-17.93-48.85c-5.88-15.81-11.88-31.58-17.7-47.42-3.05-8.3-5.91-17-5.44-25.93.46-8.67,4.08-16.8,8-24.42,1-1.87,1.95-3.73,2.94-5.59.1-.17-.17-.33-.26-.15Z"/><path class="cls-26" d="M547.74,971.59c.43,14.95,75.49,23.73,131.74,22.12s78.74-14.49,72-28c-10.26-20.4-46.13-17.2-102.38-15.58S547.31,956.65,547.74,971.59Z"/><path class="cls-29" d="M465.76,518.73a9.67,9.67,0,0,1-.74,7.16c-1,1.74-2.77,2.63-4.66,1.66a7.36,7.36,0,0,1-3.58-5.6c-.27-2,0-4.71,1.57-6.22s3.38-.35,4.49.93a7,7,0,0,1,1.22,6.94,4,4,0,0,1-2,2.35,2.45,2.45,0,0,1-2.82-1.16,5,5,0,0,1-.72-3.33c.09-.86.45-2.05,1.46-2.19,1.3-.19,2.36,1.37,2.39,2.51s-1.14,1.52-2.12,1.48c-.56,0-.92-.28-.83-.9.06-.43.35-1,.82-1a.79.79,0,0,1,.82.79l-.13.29c-.12.11,0,.14.35.09.06.1.07.08.05,0s0-.31.07-.44a1.59,1.59,0,0,1,.31-.59c.44-.58-.28-1.25-.87-1.13l-1.71.36c-.94.2-.53,1.6.4,1.43l1.72-.31-.74-1.28a3,3,0,0,0-.69,2.61,1.32,1.32,0,0,0,1.75.8c1.72-.7,1.32-3.21-.09-4a2.58,2.58,0,0,0-3.67,1.79,2.65,2.65,0,0,0,.55,2.53,2.74,2.74,0,0,0,2.2.7c1.49-.08,3.06-.75,3.44-2.34a4.47,4.47,0,0,0-2.37-4.77,3.23,3.23,0,0,0-4.23,1.25,6.35,6.35,0,0,0-.38,5.07,5,5,0,0,0,3.76,3.56,4.24,4.24,0,0,0,4-2c2.2-3,1.68-7.37-.59-10.19a6,6,0,0,0-3.95-2.32,4.2,4.2,0,0,0-3.69,1.73c-2.17,2.74-2.18,7-.78,10,1.24,2.74,4.48,5.44,7.65,4.25s4.21-5.13,4-8.12a11.15,11.15,0,0,0-.52-2.74.6.6,0,0,0-1.16.32Z"/><path class="cls-18" d="M503.16,521.89c-5.53-4.52-19.09-13-23.66-13.24-3.6-.15-7.08,1.25-10.15,3-2.82,1.62-6.13,3.61-7.76,6.55a1.19,1.19,0,0,0-.08,1.29,1.26,1.26,0,0,0,1.07.29,46,46,0,0,0,7.38-1.58,49.7,49.7,0,0,1,15.84-1.3"/><path class="cls-18" d="M484,518.71c-13.68-2.14-13.4,2.23-13.77,4.4s1.4,4.44,3.32,5.43c-.6,3.68,0,4.51,2.93,6.74-1.5,4.2,5,5.6,8.6,5.94a14.1,14.1,0,0,0,5.87-.94c1.32-.7,1.55-1.65,1-3.07,2.85,3.23,10,3.61,12.94.47a4.88,4.88,0,0,1,1.75-1.49c.55-.19,1.57-1.83,2.15-1.74,3.32.55,3.1-1.05,6.42-.51"/><g class="cls-30"><path class="cls-31" d="M475.46,528.78a25.42,25.42,0,0,0,7.54.31,4.88,4.88,0,0,0,2.73-.89,2.1,2.1,0,0,0,.73-2.18c0-.07-.15-.06-.14,0,.31,2.48-2.7,2.72-4.45,2.85a24.65,24.65,0,0,1-6.36-.28c-.11,0-.15.14-.05.17Z"/></g><g class="cls-30"><path class="cls-31" d="M477.69,535.61a11.69,11.69,0,0,0,8.76-.86,3.94,3.94,0,0,0,2-2.69,2.53,2.53,0,0,0-1.06-2.61.09.09,0,0,0-.09.15,2.58,2.58,0,0,1,.77,2.91,4.33,4.33,0,0,1-2.49,2.33,12.16,12.16,0,0,1-7.87.58.1.1,0,0,0-.05.19Z"/></g><g class="cls-30"><path class="cls-31" d="M488.66,534.18a4.05,4.05,0,0,1,2.68,2c.19.35.28.73.46,1.09.08.16.32.07.33-.09a2.39,2.39,0,0,0-.39-1.26,4.48,4.48,0,0,0-.78-1,4,4,0,0,0-2.26-1.05c-.16,0-.2.25,0,.28Z"/></g><path class="cls-12" d="M621.93,730.46s61.88,10.34,83.82,4.59-31.09-82.64-31.09-82.64-25.34-3.83-27.92-3.91-24.81,83.82-24.81,83.82"/><path class="cls-18" d="M647.33,910c1.29,7.13,6.93,17.08,6.93,17.08l-.44,15.09-8.06,3.59L623,926s-1.38-11.46-1-11.21Z"/><path class="cls-29" d="M661.28,954.16c-1.61,2.58-19.22,4.14-23.54,6.63S623.5,970.26,613,972.05s-26.77,1.07-30.32-1.9-.91-4.35-.91-4.35a10.56,10.56,0,0,1-.2-2.27,4.63,4.63,0,0,1,1.09-3.28c1.72-1.69,11.45-5.83,17.93-11.27s15.5-18.91,21.52-22.74c0,0,2.36-1.12,8.1.09s7.72,8,12.73,10.15,8.69-.72,9.72-2.83,1.06-8,2.76-7.57,5.81,14.08,5.44,23.25a4.55,4.55,0,0,1,.67,1.12A3.78,3.78,0,0,1,661.28,954.16Z"/><path class="cls-18" d="M674.38,931.41l.93-8.92,19.79.44,0,13.32-3.6,14s-15.75.16-15.88-.15-3.78-15.66-3.78-15.66Z"/><path class="cls-29" d="M713.09,980.18c-.21,1.21-4.56,3.88-11,5.23-.65.14-1.3.26-2,.35s-1.3.19-2,.26-1.3.11-2,.16-1.39,0-2.09,0c-.53,0-1.09,0-1.62,0a3.44,3.44,0,0,1-.56,0c-.77,0-1.56-.11-2.35-.2-.6-.07-1.21-.17-1.81-.28s-1.07-.21-1.6-.33a10.88,10.88,0,0,1-1.79-.44,34.29,34.29,0,0,1-3.44-1.11s-2-.79-1.67-4.16a11.33,11.33,0,0,1-.42-6.62c1.62-9.72-7.88-8.41-10.39-18.75a7.08,7.08,0,0,1,.61-4.86l-.07-1.18c-.3-9.2,2.58-17.52,5.41-16.82,0,0-2.11,4-.32,6.71s2.85-.93,8.48-2.6,12.38-.42,14.38,2.18,3.48,8.64,5.2,15.24,9.57,15.15,10.52,19.61a13.11,13.11,0,0,1,.26,3.49c0,.23-.07.46-.09.67s0,.44.07.63A6.6,6.6,0,0,1,713.09,980.18Z"/><path class="cls-32" d="M728.36,646.69c-.65,22.56-9,100.82-11.65,121.09-1.3,36.45-19.79,161-19.79,161-16.53,3.48-23.06-1.47-23.06-1.47a332,332,0,0,0-1-38.81c-3.07-39.25-8.64-97.47-1.73-120,1-4.67-.19-9.85-1.28-15.41-6.55-33.51-9.92-87.23-9.92-87.23-4.42,14.42-16.82,48.62-25.12,66.44-5.57,12-2.75,19.08-2.75,19.08s8.68,26.79,10.26,37.43c3.28,22.14,2.7,67.24,3.68,97.66a259.16,259.16,0,0,0,3.34,30.28c-14.64,8.2-27,3.88-27,3.88S580.6,780.45,580.6,740.32c0-3.82,1.7-25.72,1.7-25.8,5.94-50.46,21.56-113.53,24.25-122.36,5.05,1.56,26.61,4.82,47.27,5.52,22.63.77,56.06-1.79,73.16-5.52C733.91,606.7,728.73,634.36,728.36,646.69Z"/><path class="cls-12" d="M661.28,954.16c-1.61,2.58-19.22,4.14-23.54,6.63S623.5,970.26,613,972.05s-26.77,1.07-30.32-1.9-.91-4.35-.91-4.35a10.56,10.56,0,0,1-.2-2.27c.76.32,1.6.88,2.78,1.39,3.91,1.7,8,1.67,12.22,1.7,6.18,0,12.43.09,18.4-1.49,5.37-1.42,10.27-4.09,15.34-6.34a103.15,103.15,0,0,1,30.45-8.27,6.68,6.68,0,0,1,.77-.07A3.78,3.78,0,0,1,661.28,954.16Z"/><path class="cls-12" d="M713.09,980.18c-.21,1.21-4.56,3.88-11,5.23-.65.14-1.3.26-2,.35s-1.3.19-2,.26-1.3.11-2,.16-1.39,0-2.09,0c-.53,0-1.09,0-1.62,0a3.44,3.44,0,0,1-.56,0c-.77,0-1.56-.11-2.35-.2-.6-.07-1.21-.17-1.81-.28s-1.07-.21-1.6-.33a10.88,10.88,0,0,1-1.79-.44,34.29,34.29,0,0,1-3.44-1.11s-2-.79-1.67-4.16a11.33,11.33,0,0,1-.42-6.62c1.62-9.72-7.88-8.41-10.39-18.75a7.08,7.08,0,0,1,.61-4.86l-.07-1.18c1.88,4.11,1.72,7.22,6.39,10.43,3.41,2.37,7.43,4.83,8.22,8.92S682,977,685.42,979.28c4.34,3,10.87,2,15.7,1.18A40.7,40.7,0,0,0,712.9,976c0,.23-.07.46-.09.67s0,.44.07.63A6.6,6.6,0,0,1,713.09,980.18Z"/><path class="cls-12" d="M689.24,955a12.94,12.94,0,0,1,5.59-2.93,10.84,10.84,0,0,1,3.11-.24c1,.07,2,.43,3.08.54.38.05.44-.49.18-.66a6.56,6.56,0,0,0-3.26-.8,11.79,11.79,0,0,0-3.35.29,10.07,10.07,0,0,0-5.72,3.42.27.27,0,0,0,.37.38Z"/><path class="cls-12" d="M693.31,961a9.81,9.81,0,0,1,4.51-2.24,9,9,0,0,1,2.48-.17,12.43,12.43,0,0,1,2.49.54c.46.13.78-.56.33-.78a9.34,9.34,0,0,0-10.22,2.25.29.29,0,0,0,.41.4Z"/><path class="cls-12" d="M602.57,946.51a8.65,8.65,0,0,1,2.54,0,7.07,7.07,0,0,1,2.42,1,24.9,24.9,0,0,1,3.94,3.74c.33.32.93-.1.66-.5a13.65,13.65,0,0,0-4.32-4.17c-1.52-.87-3.77-1.54-5.39-.57-.24.14-.16.59.15.56Z"/><path class="cls-12" d="M607.59,939.37a14.49,14.49,0,0,1,5.68,2.31,12.29,12.29,0,0,1,2.23,2.09c.67.81,1.16,1.74,1.77,2.59a.34.34,0,0,0,.62-.26,7.14,7.14,0,0,0-1.56-2.84,12.3,12.3,0,0,0-2.47-2.31,10.87,10.87,0,0,0-6.19-2.19c-.34,0-.43.54-.08.61Z"/><path class="cls-12" d="M564.26,520.42l17.93,33.2a17.79,17.79,0,0,0,6.15.14c12.1-1.74,19-15.2,19.55-16.3C610,532.73,613.26,525.8,617,518c12.27-25.85,29.76-61.62,29.76-61.62L600.22,408s-11,10.06-16.06,34.42c-.89,4.37-4.83,21.66-9.15,40.31-1.14,4.79-2.46,9.85-3.8,14.65-.38,1.29-.73,2.58-1.09,3.82C567.05,511.86,564.26,520.42,564.26,520.42Z"/><path class="cls-12" d="M668.69,616.24l5.7,112.82c.08,1.71,22.68,5.85,24.37,6.22,8.7,1.88,17.46,3.48,26.27,4.73,9.1,1.3,18.48,4.38,27.67,2.71-2.44.44-4.6-52.65-4.68-57.34-.35-19.86-.7-40-5.85-59.35-4-15.1-11.34-19.75-26.16-23.61a135.33,135.33,0,0,0-24-4l-23.32,15.89Z"/><path class="cls-12" d="M578.68,554.14c-17.23,1-36.21-4.37-52-7.63S502,539.78,502,539.78s2.8-2.43,3.8-10.11c1-7.46-1.14-11.75-1.14-11.75s45.71-2,64-4.91l27.72,37.74C591.66,552.72,585.57,553.77,578.68,554.14Z"/><path class="cls-12" d="M596.92,498.78c.4,5,.81,10.1,1.23,15.16.53,6.49,1.08,13,1.62,19.37,2.42,28.74-1.75,42.58-2.91,76.89l13.57.78,71.21,4.11c4.59.27,59.79.23,60.18,6l-2.76-41.31c-1.47-21.93-2.93-43.93-1.73-65.87.93-16.91,3.38-33.73,3.59-50.69.17-13.55,0-32.81-7.77-44.46-8.62-12.9-36.47-23.92-41.14-24.86-38.3-7.68-73.59-.37-91.88,14C591.92,417.46,593.64,456.57,596.92,498.78Z"/><path class="cls-33" d="M691.69,399.42q1,5.34,1.74,10.71c.55,3.58,1,7.17,1.33,10.78l0,.17-.12.13c-3.19,3.41-6.48,6.73-9.71,10.1l-.07-.52,5.85,3.93c1.94,1.33,3.89,2.65,5.81,4-2-1.19-4-2.42-6-3.65l-6-3.72-.35-.22.29-.3c3.22-3.39,6.39-6.82,9.65-10.16l-.1.3c-.3-3.59-.75-7.18-1.12-10.78Z"/><path class="cls-33" d="M685.92,663.88q12.06,0,24.1.41l3.32.12a19.73,19.73,0,0,0,3.35,0,.13.13,0,0,0,0-.25,15.73,15.73,0,0,0-2.91-.24l-3-.11-6-.18q-6-.17-12.06-.19-3.4,0-6.81,0a.22.22,0,0,0,0,.43Z"/><path class="cls-33" d="M685.47,664.94a50,50,0,0,0,1,6.08,11.64,11.64,0,0,0,1.82,4.71c2.1,2.68,6,2.5,9,2.54l6.35.1a42.83,42.83,0,0,0,4.94-.13c2.94-.32,6-1.34,7.54-4.06a9.57,9.57,0,0,0,1.09-5,22.83,22.83,0,0,0-.84-5.52c-.06-.24-.4-.14-.36.1.5,3,1.29,6.18.17,9.15s-3.91,4.28-6.84,4.72a27.6,27.6,0,0,1-4.45.23c-1.93,0-3.85,0-5.77-.06-1.75,0-3.51,0-5.25-.12a8.44,8.44,0,0,1-4.29-1.31c-1.58-1.14-2.12-3.07-2.56-4.87a48.36,48.36,0,0,1-1.14-6.54c0-.28-.47-.28-.44,0Z"/><path class="cls-33" d="M684.54,665.81q.39,10.07,1.13,20.1c.24,3.32.52,6.64.82,10,.25,2.67.38,5.59,2.75,7.3a10.53,10.53,0,0,0,3.86,1.57,20.51,20.51,0,0,0,4.56.45,47.19,47.19,0,0,0,9.23-1.23,21.88,21.88,0,0,0,7.31-2.47,9.22,9.22,0,0,0,4.13-6,30.06,30.06,0,0,0,.2-8.15c-.2-3.34-.37-6.68-.6-10-.06-.84-.12-1.68-.19-2.52,0-.27-.43-.27-.42,0,.1,3.22.31,6.44.49,9.67a70.94,70.94,0,0,1,.27,8.5,10.21,10.21,0,0,1-2.76,6.92,14.15,14.15,0,0,1-6.73,3.09,60.53,60.53,0,0,1-8.66,1.49,19.34,19.34,0,0,1-8.77-1,5.59,5.59,0,0,1-3-2.56,10.75,10.75,0,0,1-.87-3.84c-.31-3.2-.59-6.39-.86-9.59q-.81-9.6-1.34-19.23c0-.81-.09-1.62-.13-2.43,0-.24-.38-.24-.37,0Z"/><path class="cls-33" d="M600.6,547.45c.29-3.29.53-6.55.55-9.86s-.08-6.49-.26-9.74c-.36-6.55-1.08-13.08-1.88-19.6-1.59-12.95-3.63-25.86-4.25-38.91q-.25-5.5-.14-11c.09-3.67.4-7.33.53-11,0-.12-.2-.16-.22,0a59.78,59.78,0,0,0-1,9.62c-.14,3.28-.12,6.56,0,9.83.21,6.5.8,13,1.54,19.45,1.49,13.06,3.63,26.06,4.6,39.18.27,3.67.46,7.35.52,11s.08,7.37-.13,11c0,.11.15.1.15,0Z"/><path class="cls-33" d="M592.68,474.85a29.88,29.88,0,0,0-3.59-6.32,33.66,33.66,0,0,0-2.24-2.67,12.08,12.08,0,0,0-2.65-2.35c-.18-.1-.31.12-.2.26.71.92,1.62,1.69,2.41,2.53s1.6,1.8,2.33,2.76a41.66,41.66,0,0,1,3.74,5.9c.06.14.25,0,.2-.11Z"/><path class="cls-33" d="M633.49,396.05a109.4,109.4,0,0,0-9.21,11.41c-1.4,2-2.72,4.06-3.95,6.17a52.83,52.83,0,0,0-3.14,6.58l-.06-.32L624.3,428l.27.32-.35.23-12.41,8.18.18-.42c1,4.66,1.89,9.32,2.78,14s1.75,9.35,2.51,14.05,1.48,9.4,2.09,14.12,1.09,9.46,1.28,14.21c-.33-4.74-1-9.46-1.68-14.16s-1.47-9.39-2.32-14.06-1.69-9.36-2.61-14-1.85-9.33-2.84-14l-.06-.27.23-.15L623.83,428l-.08.54-7.1-8.18-.13-.15.07-.18a52.16,52.16,0,0,1,3.29-6.61c1.26-2.11,2.62-4.16,4.06-6.14A109.59,109.59,0,0,1,633.49,396.05Z"/><path class="cls-32" d="M668.69,616.24a167.07,167.07,0,0,1-29,0,128.64,128.64,0,0,1-14.75-2.52s4.19-104.55,5-150.3c.55-29.82,4.29-50.47,8.83-61.8,1.61-4.11,3.36-7,5.12-8.65a5.26,5.26,0,0,1,1.27-1l.1-.09c11.87-7.12,39.86.83,39.86.83a101.57,101.57,0,0,0-5.51,13.86c-.32,1.1-.61,2.2-.86,3.26-3.25,14.28-3.48,20-7.29,60.61S668.69,616.24,668.69,616.24Z"/><path class="cls-18" d="M685.07,392.71a102.15,102.15,0,0,0-5.52,13.84c-12.95,4.52-20.44,5.7-30.16,3.94-5.65-1-9.47-4.83-10.68-8.86,1.6-4.11,3.38-7,5.14-8.65a14.94,14.94,0,0,0,1.26-1l.09-.1a1.91,1.91,0,0,0,.74-1,15,15,0,0,0,.39-3.9c0-.82-.18-1.71-.36-3.3-.34-4-.83-8.37-.83-8.37l7.12-4.64,27.65-27.43.48,9.11s-.41,26.47,2.89,37.88A4.43,4.43,0,0,0,685.07,392.71Z"/><path class="cls-34" d="M666,365.77s-2,13-19.69,21.16c0-.82-.18-1.71-.36-3.3-.34-4-.83-8.37-.83-8.37l7.12-4.64Z"/><path class="cls-35" d="M600,479s-6.53.68-4.14,17c2,13.59,3.35,16.27,8.28,18.1s12.06-5.1,12-5.44-.75-14.21-1.25-15.82a21.9,21.9,0,0,0-3.76-6c-1-.88-7.07-5.75-7.07-5.75l-1.75-1.21Z"/><path class="cls-18" d="M652.23,494.67l-6,36.84c-21.42-10.79-43.94-24.52-59.06-33.65-10.6-6.36-20.2-11.92-20.2-11.92s-1.29-1.56,1.51-8.8c1.68-4.43,4.89-4.16,4.89-4.16s37.58,9.72,69.46,18.84C646.38,492.83,649.47,493.8,652.23,494.67Z"/><path class="cls-12" d="M736.12,433.12c1.23,8.5,0,18.41-.28,25.3a57.8,57.8,0,0,1-1.77,13.69c-2.14,7.61-6.78,14.22-11.35,20.68-5.74,8.12-11.89,16-17.74,23.93-4.56,6.17-8.09,16.57-15,20.71-7.58,5.4-15.24,9.32-34.54,1.84-19.57-7.55-51.34-25.14-51.34-25.14,4.58-2,5.27-16,3.08-24.55-2.47-9.66-7.06-10.43-7.22-10.57l60.3,15.27S675.6,467.83,677,465.53l20.33-32.71c7.1-11.43,19.09-24.66,32.61-13C733.59,423,735.35,427.77,736.12,433.12Z"/><path class="cls-17" d="M634.38,329.56c.81,4.83-.93,9.78-3.57,13.9-1.86,2.92-4-.42-7.43-1-5.27-1-5.84-7.95-6.11-23.08-2.45-6.43-1.76-15.85-1.15-16.8,2.18-3.38,7.36-4.4,11.37-4"/><path class="cls-34" d="M645.37,380.27c2.52,0,8-1.61,9.26-2.06,5.47-2,14.5-8,15.8-12.9-5.54,3-15.75,8.37-25.24,9.25C645.22,376.22,645.32,378.69,645.37,380.27Z"/><path class="cls-18" d="M675.65,365a38.8,38.8,0,0,1-10,6c-9.22,4.14-21.37,7.3-28.55,7-6.9-.28-11.73-12.45-15.75-25.91a57,57,0,0,1-1.44-6.13c-3.42-19.28,2.25-42.12,10.61-50.62s18.8-14.38,30.93-15.73c18.44-2,23.62,17.26,24.62,31.87C687.22,327.65,688.54,353.16,675.65,365Z"/><path class="cls-20" d="M632.85,335.37a38,38,0,0,1-1.83,10c-.14.4-.24.8-.44,1.24s-.35.77-.48,1.12a1.79,1.79,0,0,0-.13.49.58.58,0,0,0,.07.34,3,3,0,0,0,.84.68,12.87,12.87,0,0,1,3.42,3.83,19.8,19.8,0,0,0-3.84-3.17,3.13,3.13,0,0,1-1.15-.86,1.45,1.45,0,0,1-.25-.86,2.78,2.78,0,0,1,.14-.75c.14-.44.33-.83.48-1.21s.26-.76.39-1.15C631.1,341.88,632,338.64,632.85,335.37Z"/><path class="cls-17" d="M677.59,308.54c-4.23,4.28-35,5-45.5,2.22-9.22-2.49-16-6.64-20.59-15.26-1.53-2.9-3-6-2.91-9.28s2.07-6.74,5.28-7.41c-1.24,1.55.26,4,2.19,4.47s3.9-.44,5.69-1.28c9.25-4.35,18.9-8.42,29.1-9.1,11.91-.8,36.5,7.48,32.43,23.64"/><path class="cls-17" d="M669.51,302.55c-2.81,2.69-3.84,6.72-4.4,10.58-.84,5.8-.87,11.9,1.39,17.3.65,1.54.6,8.89,1.82,8.58.39-.09.8-5.75,2-8.72,1.93-4.6,9.17-5.8,12.1-2.55,4.69,5.18,1.22,10.7-.76,14.15-1.2,2.08-3,4.38-3.46,6.66-.59,2.91-1.59,13.59.12,16.25,1.42,2.23,4-7.74,5.58-9.61,12-13.93,25.43-50.84,7.79-60.56-2.68-1.47-11.22-2.84-14-1.47"/><path class="cls-36" d="M664.12,343.35s3.71-1.4,6-9.07"/><path class="cls-36" d="M678.72,344.49s-1,17.11-8.2,21.91"/><path class="cls-12" d="M671.65,366.34a32.09,32.09,0,0,1-6,4.71,47.1,47.1,0,0,1-28.55,7c-6.9-.28-11.73-12.45-15.75-25.91-.58-2,4.47-8.19,12.63-8.56,8.64-.38,16.66,8.06,30.72-1.22C664.73,342.38,666.45,359.11,671.65,366.34Z"/><path class="cls-29" d="M651.82,418.69c1,17-3.14,35.84-16.25,47.62-12,10.82-29.75,13.89-45,9-4.54-1.46-8.75-3.61-13.13-5.46a64.38,64.38,0,0,0-12-3.47c-4.48-.94-8.82-2.27-13.2-3.56a51.68,51.68,0,0,0-12.35-2.43c-8.51-.37-16.46,3.78-23.05,8.85a55.09,55.09,0,0,0-14.82,17.52c-4.35,8-8.09,16.53-14.61,23.1a32.91,32.91,0,0,1-19.5,9.54c-1.92.23-3.83.4-5.76.44a.48.48,0,0,0,0,1,33.77,33.77,0,0,0,21.22-5.44c7.2-4.89,12-12.4,16-19.93,2.08-3.89,3.92-7.91,6.31-11.62a53.47,53.47,0,0,1,7.49-9.22,51.74,51.74,0,0,1,9.53-7.39,34.48,34.48,0,0,1,12.25-5c9.07-1.41,17.79,2.72,26.42,4.82,4.19,1,8.45,1.68,12.55,3.08,4.43,1.51,8.55,3.8,12.93,5.45A50.35,50.35,0,0,0,612,478.43a46.36,46.36,0,0,0,21-8.51c13.9-10.32,19.58-28,19.73-44.74q0-3.26-.21-6.49c0-.47-.75-.47-.73,0Z"/><path class="cls-12" d="M597.81,592.16S585.58,689.47,577.94,738l33.65-6.89S622.54,660,625,611.82C626.18,588.37,597.81,592.16,597.81,592.16Z"/><path class="cls-18" d="M582.09,475.36s-8.87-4-13.38-8.08-9.14-8.62-10.68-9.23a51.59,51.59,0,0,0-8.67-2.08c-1,0-.77,3.42,1.33,4.54a23.94,23.94,0,0,1,5.08,3.18c1.27,1.16-1.23.84-5.54-.71-2.92-1.05-11.33-7.38-14.91-7.59s-.52,4,1.84,6.05,9.05,6.74,9.05,6.74.81,4.19,1.46,5.18-.16,2.9,0,4.61a32.29,32.29,0,0,0,1,3.75c.14.82.27,3.83,1.64,4.71s18.85.68,20.74,1.78S582.09,475.36,582.09,475.36Z"/><path class="cls-29" d="M676.2,336.1a1.71,1.71,0,0,0-2,.81,5,5,0,0,0-.53,2.65,1.67,1.67,0,0,0,1.13,1.76,2,2,0,0,0,1.91-.76,4.26,4.26,0,0,0,.62-2.64,3.27,3.27,0,0,0-.56-2,1.12,1.12,0,0,0-1.64-.28,3.56,3.56,0,0,0-.9,2.22,3.21,3.21,0,0,0,.4,2.6,2,2,0,0,0,1.81.74,1.49,1.49,0,0,0,1.2-1.63,8.09,8.09,0,0,0-.68-2.94c-.28-.7-.7-1.76-1.65-1.54s-1.22,1.27-1.42,2c-.37,1.38-.8,4.09,1.29,4.29a2.44,2.44,0,0,0,1.84-.69,2.67,2.67,0,0,0,.82-2.19,6.91,6.91,0,0,0-1-2.85,1.85,1.85,0,0,0-.8-.9,1,1,0,0,0-1,.09A3.49,3.49,0,0,0,674,337a6.06,6.06,0,0,0-.15,2.9,2.71,2.71,0,0,0,1.33,1.8,2.5,2.5,0,0,0,2,.26,2,2,0,0,0,1.25-1.82,8.68,8.68,0,0,0,0-1.44,7,7,0,0,0-.23-1.36,2.69,2.69,0,0,0-1.69-1.84,1.77,1.77,0,0,0-2,.72,3.69,3.69,0,0,0-.41,2.24,4,4,0,0,0,.65,2.2,1.51,1.51,0,0,0,1.93.37,3.44,3.44,0,0,0,1.32-1.87c.46-1.29.8-3.3-.51-4.21s-3.18.44-3.44,1.88a5.83,5.83,0,0,0,.46,3.05c.27.71.65,1.79,1.61,1.64s1.26-1.21,1.42-1.95a5.16,5.16,0,0,0-.06-2.47,4.86,4.86,0,0,0-1.22-2.12.4.4,0,0,0-.56,0,4.69,4.69,0,0,0-1.22,2.84,3.45,3.45,0,0,0,1,2.87,1.44,1.44,0,0,0,2.43-.52,4.13,4.13,0,0,0,.39-2.47,2.14,2.14,0,0,0-1.6-1.87.4.4,0,0,0-.45.18,2.6,2.6,0,0,0,.68,3.07.41.41,0,0,0,.63-.08,2.34,2.34,0,0,0,.51-2.18,1.23,1.23,0,0,0-1.53-.74c-.67.28-.86,1.19-.91,1.84a3.54,3.54,0,0,0,.57,2.12.39.39,0,0,0,.62.08,3.93,3.93,0,0,0,.93-2.24,3.22,3.22,0,0,0-.66-2.36,1.28,1.28,0,0,0-1-.46,1.19,1.19,0,0,0-.93.75,3.39,3.39,0,0,0-.19,2.22,3.51,3.51,0,0,0,1.47,2.08.4.4,0,0,0,.55-.15,8.64,8.64,0,0,0,.73-2.64,4.32,4.32,0,0,0-.23-2.36c-.67-1.37-2.58-1-3.18.24a3.29,3.29,0,0,0,0,2.43c.22.69.54,1.53,1.37,1.62a1.67,1.67,0,0,0,1.61-1,2.68,2.68,0,0,0,.25-1.11,2,2,0,0,0-.16-1.18c-.36-.54-1.61-.89-1.89-.08a1.06,1.06,0,0,0,1.07,1.36c.42,0,.43-.7,0-.66a.32.32,0,0,1-.32-.21c0-.06,0-.11,0-.17s-.1,0,0,0l.17,0c.5,0,.41.5.39.89a1.4,1.4,0,0,1-.5,1.19.59.59,0,0,1-.94-.3c-.39-.8-.72-2.09,0-2.79a1.16,1.16,0,0,1,1-.35c.42.08.6.53.67.92a6.86,6.86,0,0,1-.63,3.75l.55-.15a2.6,2.6,0,0,1-1.1-1.59,2.65,2.65,0,0,1-.06-1,1.53,1.53,0,0,1,.36-.95c.28-.19.59.31.68.5a3,3,0,0,1,.24,1.05,3.17,3.17,0,0,1-.7,2.11l.63.08a2.67,2.67,0,0,1-.22-2.63c.22-.38.6-.14.7.2s-.26,1-.5,1.39l.62-.08a1.85,1.85,0,0,1-.56-2.11l-.45.18a1.45,1.45,0,0,1,1.07,1.48,3.69,3.69,0,0,1-.13,1.19c-.11.36-.3.94-.69,1.08s-.82-.28-1-.59a2.62,2.62,0,0,1-.41-1.39,3.84,3.84,0,0,1,1-2.82h-.56A4.19,4.19,0,0,1,676.7,339a2.81,2.81,0,0,1-.64,1.7c-.53.5-.86-.73-1-1-.45-1.22-.88-2.89.35-3.82a1.28,1.28,0,0,1,1.42-.19,1.49,1.49,0,0,1,.63,1.27,5.6,5.6,0,0,1-.24,1.68,3.68,3.68,0,0,1-.74,1.54c-.31.35-.78.59-1.19.24a2.27,2.27,0,0,1-.54-1.49c-.09-.83-.18-2.67,1.1-2.62,1.51.07,1.68,2,1.74,3.12,0,.6.08,1.39-.44,1.8a1.42,1.42,0,0,1-1.27.14c-1.27-.4-1.58-1.71-1.45-2.9a8.64,8.64,0,0,1,.49-2.14c.14-.38.55-1.17,1-.67a4,4,0,0,1,.51.87,10.3,10.3,0,0,1,.46,1.08,3,3,0,0,1,.05,2.09c-.33.77-1.6,1.55-2.33.83a2.26,2.26,0,0,1-.34-1.9,6.06,6.06,0,0,1,.6-2.22c.12-.22.32-.52.59-.58s.55.34.68.6a9.1,9.1,0,0,1,.73,2.21c.11.56.35,1.57-.24,1.95a1.27,1.27,0,0,1-1.34-.2,2,2,0,0,1-.58-1.81,5.91,5.91,0,0,1,.48-2c.21-.45.69-.69,1.06-.26a2.53,2.53,0,0,1,.49,1.48c.05,1.12-.08,3.08-1.59,3.12-.71,0-.95-.64-.95-1.24a5.39,5.39,0,0,1,.29-2.07,1.3,1.3,0,0,1,1.54-.9c.32.1.44-.38.14-.49Z"/><path class="cls-29" d="M676.76,338.69c2.72,0,5.56-.16,8.19.65,3,.91,4.59,3.19,5.28,6.12a67.37,67.37,0,0,1,1,9.63c.31,3.56.64,7.11.91,10.67,1,12.74,1.06,26.41-5.88,37.66a28.84,28.84,0,0,1-12.23,11.26,46,46,0,0,1-18.15,3.75,38.55,38.55,0,0,1-16.49-3.12A29,29,0,0,1,626.68,404c-7.08-11.51-6.54-25.31-5.33-38.26.16-1.79.29-3.58.36-5.38a.31.31,0,0,0-.6-.08A94,94,0,0,0,619.26,383a48.33,48.33,0,0,0,4.39,18.71A31.08,31.08,0,0,0,635.56,415a36.53,36.53,0,0,0,16.76,4.79,51.21,51.21,0,0,0,18.4-2.4,29.34,29.34,0,0,0,14.55-10.21c8.33-10.82,9.35-24.83,8.61-38-.21-3.82-.55-7.64-.86-11.45-.29-3.55-.46-7.14-.92-10.68-.37-2.86-1.27-5.72-3.64-7.54a12,12,0,0,0-7.61-2.05,23.5,23.5,0,0,0-4.18.49c-.4.08-.3.68.09.69Z"/><path class="cls-29" d="M656.57,420.74a.1.1,0,0,0,0-.19.1.1,0,0,0,0,.19Z"/><path class="cls-33" d="M660.53,494.43c1.79,2.77,3.88,5.33,5.4,8.27a23.19,23.19,0,0,1,2.44,8.35.24.24,0,0,0,.47,0,18.29,18.29,0,0,0-2.11-8.5,44.64,44.64,0,0,0-5.79-8.44c-.19-.22-.58.07-.41.32Z"/><path class="cls-33" d="M663.5,491.19c1.14.76,2.33,1.44,3.46,2.23a39.58,39.58,0,0,1,3.33,2.59c1.39,1.21,4.18,3.91,2.37,5.84l.33,0a4.94,4.94,0,0,1-1.09-1.1,7.92,7.92,0,0,0-.67-1,.14.14,0,0,0-.24.1c0,.93,1,1.89,1.67,2.42a.27.27,0,0,0,.38,0c1.82-1.85,0-4.63-1.52-6a36.77,36.77,0,0,0-3.65-2.95,25.79,25.79,0,0,0-4.1-2.52.27.27,0,0,0-.27.46Z"/><path class="cls-33" d="M675.55,546.89c.53,11.69,1.43,23.36,2,35s.88,23.07.92,34.61c.07,23.07-.69,46.15-.14,69.22.3,13,1,25.94,2.56,38.83,0,.19.32.19.29,0-2.69-22.9-2.89-46-2.71-69,.08-11.6.27-23.2.27-34.8s-.24-23.06-.7-34.58c-.52-13.1-1.15-26.22-2.23-39.29,0-.17-.28-.17-.27,0Z"/><path class="cls-33" d="M621.55,527.9c.07,12.93.25,25.86.38,38.79.14,12.77.6,25.58-.38,38.34s-2.95,25.3-4.63,37.92-3.41,25.38-5.09,38.07c-1.92,14.48-3.78,29-5.73,43.45a.16.16,0,1,0,.32,0c3.37-25.52,6.88-51,10.28-76.52,1.7-12.75,3.58-25.52,4.8-38.33s1-25.49.82-38.28c-.18-14.5-.36-29-.63-43.49a.07.07,0,0,0-.14,0Z"/><path class="cls-33" d="M565.25,513.8a50.74,50.74,0,0,1,7.87.82,71.14,71.14,0,0,1,7.47,1.92c.12,0,.16-.14,0-.19a41.27,41.27,0,0,0-15.39-2.8.13.13,0,0,0,0,.25Z"/><path class="cls-33" d="M668.11,544.24c5,2.07,10.81.59,15.53-1.49a36.2,36.2,0,0,0,13.65-10.55c4.08-5,7.13-10.79,10.49-16.3q5.47-9,11.65-17.46c4.64-6.4,9.59-12.57,14.67-18.62.09-.11-.06-.27-.16-.16a231.48,231.48,0,0,0-24.68,32.83c-3.45,5.47-6.5,11.22-10.24,16.5a44.71,44.71,0,0,1-6.3,7.29A33.73,33.73,0,0,1,686,541c-5.17,2.79-12,5.13-17.76,2.74-.34-.14-.49.42-.16.55Z"/><path class="cls-33" d="M707.3,422.19a23.48,23.48,0,0,1,15.83-7.49,29.5,29.5,0,0,1,6,.41.24.24,0,0,0,.13-.47,20,20,0,0,0-9.49-.12,23.46,23.46,0,0,0-8.77,3.73,22.36,22.36,0,0,0-4,3.6c-.2.24.13.57.34.34Z"/><path class="cls-33" d="M702.35,425.3a5.79,5.79,0,0,0-1.27.86,6,6,0,0,0-1,1.17,5.67,5.67,0,0,0-.65,1.36,5,5,0,0,0-.23,1.43.22.22,0,0,0,.44.06,2.41,2.41,0,0,1,.17-.59c.1-.21.16-.44.24-.66a6.91,6.91,0,0,1,.64-1.2,6.41,6.41,0,0,1,.84-1,7.14,7.14,0,0,1,1.06-.92.28.28,0,0,0-.28-.48Z"/><path class="cls-33" d="M669.94,475.54c7.53-7.69,10.4-18.39,16.4-27.12A34.25,34.25,0,0,1,689,445c1-1.12,2.11-2.12,3.14-3.21.19-.2-.06-.55-.31-.39a21.61,21.61,0,0,0-5.32,5.51,53.87,53.87,0,0,0-4.19,6.75c-2.53,4.72-4.64,9.66-7.37,14.27a42.27,42.27,0,0,1-5.32,7.34c-.18.2.11.49.29.3Z"/><path class="cls-18" d="M505.28,522.1c-2-.34-4.19-1.84-5.85-2.72-2.07-1.1-4.1-2.28-6.18-3.36a22.59,22.59,0,0,0-21.69.66,2,2,0,0,0-1.17,1.36c-.14,1.18,1.41,1.67,2.57,1.72,2.79.12,5.52.56,8.32.73a12.79,12.79,0,0,0,5.22,8.37,25,25,0,0,0,9.11,3.94,51.71,51.71,0,0,0,9.1,1.39,25.87,25.87,0,0,0,1.57-9.22,11.71,11.71,0,0,0-.45-2.79A2.71,2.71,0,0,1,505.28,522.1Z"/><g class="cls-30"><path class="cls-31" d="M475.87,520.46c1.14.09,2.27.2,3.41.28a8.73,8.73,0,0,1,3.37.53c1.7.84,2.84,2.78,4,4.21a25.53,25.53,0,0,0,4.07,4.24,9.24,9.24,0,0,0,5,2.2c.18,0,.21-.26,0-.31a13.66,13.66,0,0,1-5.36-2.8,34.39,34.39,0,0,1-4.16-4.62c-1.08-1.35-2.22-3-4-3.53a11.8,11.8,0,0,0-3-.3c-1.13,0-2.27-.05-3.41-.08-.11,0-.11.17,0,.18Z"/></g><g class="cls-30"><path class="cls-31" d="M472.88,516c2.46-1.44,5.51-1.87,8.3-2.09a32.66,32.66,0,0,1,3.7-.1A9.12,9.12,0,0,1,487,514a.1.1,0,0,0,.06-.19,6.44,6.44,0,0,0-2.1-.25,34.85,34.85,0,0,0-4,.12,18.49,18.49,0,0,0-8.19,2.22s0,.11,0,.08Z"/></g><path class="cls-33" d="M569.49,511.05a11.5,11.5,0,0,1,4.1-.8,8.82,8.82,0,0,1,2.11.25c.31.07.62.16.93.26a5.27,5.27,0,0,0,1,.29.32.32,0,0,0,.22-.53,4.32,4.32,0,0,0-2-.81,10,10,0,0,0-2.25-.24,8.76,8.76,0,0,0-4.31,1.08c-.26.15-.09.62.21.5Z"/><path class="cls-17" d="M645.79,332.89a1.77,1.77,0,0,0-.67,1.33,7.87,7.87,0,0,0-.15,1.37,8,8,0,0,0,.08,1.29,2.81,2.81,0,0,0,.34,1.24,1.58,1.58,0,0,0,1,.74,1,1,0,0,0,.72-.1.72.72,0,0,0,.25-.24s0-.07,0,0,.1-.12.08-.09l.12-.18a4.72,4.72,0,0,0,.42-2.34,5.4,5.4,0,0,0-.78-2.57.63.63,0,0,0-.71-.29,1.1,1.1,0,0,0-.88,1,.6.6,0,0,0,1.12.3l.1-.14s-.13.05,0,0l-.71-.29a3.9,3.9,0,0,1,.65,1.9,3.84,3.84,0,0,1-.06,1,3,3,0,0,1-.13.52c0,.09-.06.19-.1.28s0,0,0,0l0,0,.44-.18h.08l-.18,0-.18,0h.08l.16.05s-.06,0,0,0,0,0,0,0-.1-.11,0,0,0,0,0-.06a.67.67,0,0,1-.06-.12c-.06-.09,0,.1,0,0a4.38,4.38,0,0,1-.14-1.23,11.46,11.46,0,0,1,.1-1.43s0-.13,0-.05l0-.17.06-.34a2.89,2.89,0,0,0,.08-.5,1.13,1.13,0,0,0-.16-.51.62.62,0,0,0-.83-.22Z"/><path class="cls-17" d="M625.66,334.74a1.9,1.9,0,0,0-.69.82,4.64,4.64,0,0,0-.33,1.08,4.46,4.46,0,0,0,.23,2.26,1.7,1.7,0,0,0,.69,1,.93.93,0,0,0,1.2-.41,3.92,3.92,0,0,0,.56-2.07,3.61,3.61,0,0,0-.6-2.09,1.4,1.4,0,0,0-1.11-.78,1.2,1.2,0,0,0-1.05.8,5.11,5.11,0,0,0-.19,2.74,2.71,2.71,0,0,0,.36,1.08,1.14,1.14,0,0,0,1.27.51c.91-.28,1.12-1.56,1.11-2.37a3.52,3.52,0,0,0-.91-2.5.62.62,0,0,0-1,.76,4.05,4.05,0,0,1,.56,1.37s0,.17,0,.06a1.48,1.48,0,0,1,0,.21,2.81,2.81,0,0,1,0,.41s0,.13,0,0c0,.07,0,.14,0,.2a3,3,0,0,1-.12.43c0,.11.07-.11,0,.05l0,0c0,.07,0,.07,0,0l0,0c.06,0,.06,0,0,0,.18-.07.18,0,.31,0l0,0s0,0,0,0l0,.05-.06-.1c-.09-.14,0,.1,0-.06s0-.18-.07-.27a4.37,4.37,0,0,1,0-1.69,3.24,3.24,0,0,1,.09-.4,1.54,1.54,0,0,1,.05-.17c-.06.16,0-.06,0-.05s-.19.11-.19.11a1.28,1.28,0,0,1-.19,0l0,0,.09.09.08.1c0-.05,0,0,0,0s.12.18.17.27l.09.17c.09.18,0-.09,0,.09a4.05,4.05,0,0,1,.2.76,2.46,2.46,0,0,1,0,.63,2.37,2.37,0,0,1-.18.68,2.24,2.24,0,0,1-.11.22,1.27,1.27,0,0,1-.07.12c-.07-.16.18,0,.2,0s.07.13,0,0l-.06-.11a2.46,2.46,0,0,1-.14-.38,4.28,4.28,0,0,1-.13-1.71,3.29,3.29,0,0,1,.18-.8c.09-.28.15-.55.22-.83s-.21-.5-.44-.34Z"/><path class="cls-17" d="M644,326.4a6.59,6.59,0,0,1,3-1.61,11.59,11.59,0,0,1,3.41-.5,13.9,13.9,0,0,1,4,.56c1.35.4,2.53,1.11,3.83,1.63.3.13.56-.34.32-.54-2.19-1.87-5.5-2.57-8.3-2.53-2.35,0-5.14.71-6.66,2.63-.19.25.13.6.36.36Z"/><path class="cls-17" d="M628.66,325.82a8.1,8.1,0,0,0-5.52-1.85,9.76,9.76,0,0,0-2.94.51,4.36,4.36,0,0,0-2.38,1.53.18.18,0,0,0,.2.25c.83-.2,1.58-.74,2.39-1a8.77,8.77,0,0,1,2.73-.49,10.29,10.29,0,0,1,5.24,1.43c.22.13.48-.18.28-.36Z"/><path class="cls-37" d="M644.88,605.43c0,1.48.27,3,.44,4.46l.52,4.34c.34,2.94.7,5.87,1,8.81s.64,5.6,1,8.39a16.2,16.2,0,0,0,2.29,7.13,33.93,33.93,0,0,0,5.68,6.29c.35.32.87-.19.52-.52a38.28,38.28,0,0,1-5.13-5.52,15.32,15.32,0,0,1-2.61-7.27c-.68-5.56-1.29-11.13-2-16.69l-.58-4.71c-.2-1.59-.33-3.22-.67-4.78a.26.26,0,0,0-.5.07Z"/><path class="cls-37" d="M625.36,601.21a33.33,33.33,0,0,0,7.86,2.11c1.3.22,2.59.43,3.88.69s2.62.67,3.94,1c5.57,1.51,11.32,1.34,17,.84,3.38-.3,6.75-.6,10.13-.86.57,0,.59-.92,0-.9-5.8.17-11.53,1.22-17.34,1.22a38.32,38.32,0,0,1-8.67-.94c-1.3-.31-2.57-.74-3.88-1s-2.53-.49-3.8-.7a56.79,56.79,0,0,1-9-1.91c-.26-.09-.45.35-.19.46Z"/><path class="cls-37" d="M654.29,608.24c-.09,4,.3,7.94.58,11.88q.46,6.4,1.07,12.78c.81,8.65,1.78,17.29,2.81,25.92q.4,3.4.83,6.81c.13,1.07.26,2.13.4,3.2a8.12,8.12,0,0,0,.64,3,.14.14,0,0,0,.25,0,7.28,7.28,0,0,0-.07-2.67l-.36-2.91q-.37-3-.73-6-.76-6.36-1.46-12.73c-1-8.64-1.83-17.29-2.51-26-.35-4.42-.48-8.88-1-13.3a.25.25,0,0,0-.5,0Z"/></g></g></svg>