<svg id="Layer_1" enable-background="new 0 0 512 512" height="512" viewBox="0 0 512 512" width="512" xmlns="http://www.w3.org/2000/svg"><g><g><path d="m256 22c-135.31 0-245 109.69-245 245 0 71.68 30.787 136.167 79.854 180.969l1-.442v-36.629l-26.705-6.647c-1.045-.26-1.924-.914-2.474-1.84s-.702-2.01-.43-3.052l39.696-111.511c6.117-20.746 25.444-35.198 47.018-35.198h58.396l7.751 13.253 40.998 60.961 40.462-60.81 7.758-13.404h58.716c21.573 0 40.9 14.452 47.001 35.145l39.738 111.646c.247.959.095 2.043-.455 2.97s-1.429 1.58-2.474 1.84l-26.705 6.647v36.629l1 .442c49.068-44.802 79.855-109.289 79.855-180.969 0-135.31-109.69-245-245-245z" fill="#fe99a0"/><path d="m435.5 50h15v26h-15z" fill="#acacac"/><g><path d="m435.5 255.041v178.682c5.273-5.674 10.279-11.598 15-17.753v-160.93h-15z" fill="#0593fc"/></g><g><path d="m484.5 36h-146.757c3.4 4.569 6.193 9.612 8.289 15h138.468c4.142 0 7.5-3.358 7.5-7.5s-3.358-7.5-7.5-7.5z" fill="#838383"/></g><g><g fill="#6d3326"><path d="m340.237 183.843h-10.699l-.168.793c-4.021 19.027-16.174 35.263-33.344 44.545l-.524.284v23.185h55.873v-71.558c-3.331 1.753-7.119 2.751-11.138 2.751z"/><path d="m295.502 53.304v21.166l1.21-.26c1.685-.361 3.394-.544 5.079-.544 1.96 0 3.891.247 5.738.734 13.708 3.614 23.281 16.052 23.281 30.247v21.353h9.427c4.018 0 7.806.998 11.137 2.751v-54.622c0-35.898-29.101-65-65-65h-15.224c14.621 9.284 24.352 25.609 24.352 44.175z"/></g><path d="m264.571 237.115h-17.143c-36.524 0-66.239-29.714-66.239-66.239v-47.093c0-10.817 7.292-20.344 17.733-23.167l96.499-26.099c.358-.097.719-.174 1.08-.255v-20.958c.001-29.439-23.864-53.304-53.303-53.304h-12.573c-38.66 0-70 31.34-70 70v182.65h135.877v-23.762c-9.476 5.237-20.359 8.227-31.931 8.227z" fill="#883f2e"/><g fill="#6d3326"><path d="m171.763 125h8.426v-1.216c0-11.293 7.571-21.184 18.473-24.133l3.461-.936v-28.715c0-33.356 23.337-61.243 54.57-68.273-4.311-1.124-8.832-1.727-13.495-1.727h-12.573c-38.66 0-70 31.34-70 70v57.618c3.355-1.672 7.135-2.618 11.138-2.618z"/><path d="m181.651 184.843h-9.888c-4.003 0-7.783-.946-11.138-2.618v70.426h41.498v-32.093c-10.196-9.304-17.511-21.706-20.472-35.715z"/></g></g><path d="m425 232v14.041c0 5.523 4.477 10 10 10h16c5.523 0 10-4.477 10-10v-14.041z" fill="#fff"/><path d="m442 246.041v-14.041h-17v14.041c0 5.523 4.477 10 10 10h16c.169 0 .333-.017.5-.025-5.289-.263-9.5-4.621-9.5-9.975z" fill="#f8f6f6"/><path d="m144 428.568c0-2.761-1.871-5.155-4.551-5.822l-43.946-10.939-4.649-.127v36.289c15.653 14.293 33.176 26.578 52.146 36.456l1-5.596z" fill="#fed2a4"/><path d="m111.854 415.877-16.351-4.07-4.649-.127v36.289c6.666 6.086 13.689 11.784 21 17.111z" fill="#ffbd86"/><path d="m372.551 422.746c-2.68.667-4.551 3.061-4.551 5.822v50.26l1 5.596c18.97-9.878 36.492-22.163 52.146-36.456v-36.288l-4.649.127z" fill="#fed2a4"/><path d="m389 418.652-16.449 4.095c-2.68.667-4.551 3.061-4.551 5.822v50.26l1 5.596c6.865-3.575 13.534-7.475 20-11.661z" fill="#ffbd86"/><g><path d="m450.722 399.106-39.722-111.593c-6.268-21.265-25.791-35.862-47.96-35.862h-59.292l-8.014 13.85-39.634 59.565-40.13-59.668-8.041-13.748h-58.969c-22.169 0-41.691 14.598-47.96 35.862l-39.722 111.594c-.704 2.694.928 5.443 3.63 6.116l74.299 18.495c2.228.555 3.792 2.556 3.792 4.852v55.857c33.813 17.608 72.241 27.574 113.001 27.574s79.188-9.966 113-27.575v-55.857c0-2.296 1.564-4.297 3.792-4.852l74.299-18.495c2.702-.672 4.334-3.421 3.631-6.115z" fill="#8ac9fe"/><g><path d="m163.885 494.073v-68.339c0-6.889-4.692-12.892-11.377-14.556l-66.715-16.607c-2.702-.672-4.334-3.422-3.63-6.116l39.722-111.593c2.807-9.522 8.277-17.701 15.447-23.837-17.125 4.093-31.19 17.043-36.332 34.488l-39.722 111.593c-.704 2.694.928 5.443 3.63 6.116l74.299 18.495c2.228.555 3.792 2.556 3.792 4.852v55.857c6.782 3.531 13.752 6.749 20.886 9.647z" fill="#60b7ff"/></g><g><g><path d="m181.189 170.876v-45.876h-9.427c-13.807 0-25 11.193-25 25v9.843c0 13.807 11.193 25 25 25h10.921c-.97-4.505-1.494-9.175-1.494-13.967z" fill="#f6a96c"/><path d="m340.237 125h-9.427v45.876c0 4.792-.524 9.461-1.495 13.967h10.921c13.807 0 25-11.193 25-25v-9.843c.001-13.807-11.192-25-24.999-25z" fill="#ffbd86"/></g><path d="m285.618 246.651v-12.983c-6.617 2.224-13.69 3.448-21.047 3.448h-17.143c-7.357 0-14.43-1.224-21.047-3.448v12.983c0 2.761-2.239 5-5 5h-13.453l8.041 13.748 40.13 59.668 39.634-59.566 8.014-13.85h-13.13c-2.76 0-4.999-2.239-4.999-5z" fill="#ffbd86"/><g><path d="m241.261 261.983h4.192c2.761 0 5-2.239 5-5v-19.868h-3.024c-7.357 0-14.43-1.224-21.047-3.448v12.983c0 2.761-2.239 5-5 5h-13.453l8.041 13.748 40.13 59.668 8.706-13.085-27.726-42.255c-2.181-3.325.204-7.743 4.181-7.743z" fill="#f6a96c"/></g><g><path d="m295.161 73.552-96.499 26.099c-10.902 2.948-18.473 12.84-18.473 24.133v47.093c0 37.135 30.104 67.239 67.239 67.239h17.144c37.135 0 67.239-30.104 67.239-67.239v-66.229c0-14.975-10.197-27.568-24.027-31.214-4.135-1.091-8.495-.999-12.623.118z" fill="#fed2a4"/></g><path d="m206.284 170.876v-57.833c0-6.654 2.643-12.808 7.033-17.356l-14.655 3.964c-10.902 2.948-18.473 12.84-18.473 24.133v47.093c0 37.135 30.104 67.239 67.239 67.239h17.144c1.494 0 2.971-.068 4.44-.167-35.03-2.324-62.728-31.455-62.728-67.073z" fill="#ffbd86"/></g><g><g><g><path d="m216 149.382c-4.143 0-7.5-3.358-7.5-7.5v-16.882c0-4.142 3.357-7.5 7.5-7.5s7.5 3.358 7.5 7.5v16.882c0 4.142-3.357 7.5-7.5 7.5z" fill="#d88a55"/></g><g><path d="m296 149.382c-4.143 0-7.5-3.358-7.5-7.5v-16.882c0-4.142 3.357-7.5 7.5-7.5s7.5 3.358 7.5 7.5v16.882c0 4.142-3.357 7.5-7.5 7.5z" fill="#d88a55"/></g></g><g><path d="m258.442 206.36c-10.768 0-20.895-4.198-28.517-11.82-2.929-2.929-2.929-7.678.001-10.606 2.928-2.929 7.677-2.929 10.606 0 4.788 4.789 11.148 7.426 17.909 7.426 6.76 0 13.12-2.638 17.91-7.426 2.928-2.929 7.677-2.929 10.606 0s2.929 7.678-.001 10.606c-7.62 7.622-17.747 11.82-28.514 11.82z" fill="#d88a55"/></g><g><path d="m263.874 167.257h-7.369c-6.168 0-11.186-5.018-11.186-11.185v-17.197c0-4.142 3.357-7.5 7.5-7.5s7.5 3.358 7.5 7.5v13.381h3.555c4.143 0 7.5 3.358 7.5 7.5s-3.357 7.501-7.5 7.501z" fill="#d88a55"/></g></g><g><path d="m303.748 251.651-47.652 71.617-48.167-71.617h-12.051l84.162 125.136c5.011 7.451 7.66 16.135 7.66 25.114v108.058c3.355-.434 6.689-.933 10-1.501v-106.558c0-10.974-3.237-21.588-9.362-30.695l-26.189-38.939 53.614-80.616h-12.015z" fill="#fff"/></g></g><g><path d="m482 233h-78c-5.523 0-10-4.477-10-10v-138c0-5.523 4.477-10 10-10h78c5.523 0 10 4.477 10 10v138c0 5.523-4.477 10-10 10z" fill="#d8ecfe"/></g><g fill="#8ac9fe"><path d="m477 150v-25c0-2.761-2.239-5-5-5h-58c-2.761 0-5 2.239-5 5v25z"/><path d="m409 198v15c0 2.761 2.239 5 5 5h58c2.761 0 5-2.239 5-5v-15z"/></g><path d="m424 223v-5h-10c-2.761 0-5-2.239-5-5v-88c0-2.761 2.239-5 5-5h10v-35c0-5.523 4.477-10 10-10h-30c-5.523 0-10 4.477-10 10v138c0 5.523 4.477 10 10 10h30c-5.523 0-10-4.477-10-10z" fill="#b3dafe"/><g fill="#60b7ff"><path d="m437 149v-24c0-2.761 2.239-5 5-5h-28c-2.761 0-5 2.239-5 5v24z"/><path d="m437 213v-14h-28v14c0 2.761 2.239 5 5 5h28c-2.761 0-5-2.239-5-5z"/></g><g><path d="m402.694 196v-44c0-1.657 1.343-3 3-3h74.612c1.657 0 3 1.343 3 3v44c0 1.657-1.343 3-3 3h-74.612c-1.657 0-3-1.343-3-3z" fill="#fff"/></g><path d="m434 196v-44c0-1.657 1.343-3 3-3h-31.306c-1.657 0-3 1.343-3 3v44c0 1.657 1.343 3 3 3h31.306c-1.657 0-3-1.343-3-3z" fill="#f8f6f6"/><g><path d="m426.91 177.415v-8.871c0-3.062 2.482-5.544 5.544-5.544h21.091c3.062 0 5.544 2.482 5.544 5.544v8.871c0 3.062-2.482 5.544-5.544 5.544h-21.091c-3.061 0-5.544-2.482-5.544-5.544z" fill="#22b27f"/></g><path d="m441.821 177.415v-8.871c0-3.062 2.482-5.544 5.544-5.544h-14.911c-3.062 0-5.544 2.482-5.544 5.544v8.871c0 3.062 2.482 5.544 5.544 5.544h14.911c-3.062 0-5.544-2.482-5.544-5.544z" fill="#09a76d"/></g><path d="m221.149 368.644h-12.604c-.839 0-1.52-.68-1.52-1.52v-12.604c0-.839-.68-1.52-1.52-1.52h-15.011c-.839 0-1.52.68-1.52 1.52v12.604c0 .839-.68 1.52-1.52 1.52h-12.604c-.839 0-1.52.68-1.52 1.52v15.011c0 .839.68 1.52 1.52 1.52h12.604c.839 0 1.52.68 1.52 1.52v12.604c0 .839.68 1.52 1.52 1.52h15.011c.839 0 1.52-.68 1.52-1.52v-12.604c0-.839.68-1.52 1.52-1.52h12.604c.839 0 1.52-.68 1.52-1.52v-15.011c0-.84-.68-1.52-1.52-1.52z" fill="#26a6fe"/><g><path d="m200.826 392c-.839 0-1.52-.68-1.52-1.52v-12.604c0-.839-.681-1.52-1.52-1.52h-12.604c-.839 0-1.52-.68-1.52-1.52v-6.193h-8.811c-.839 0-1.52.68-1.52 1.52v15.011c0 .839.68 1.52 1.52 1.52h12.604c.839 0 1.52.68 1.52 1.52v12.604c0 .839.68 1.52 1.52 1.52h15.011c.839 0 1.52-.68 1.52-1.52v-8.818z" fill="#0593fc"/></g><g><path d="m215.5 431.5h-35c-4.143 0-7.5-3.358-7.5-7.5s3.357-7.5 7.5-7.5h35c4.143 0 7.5 3.358 7.5 7.5s-3.357 7.5-7.5 7.5z" fill="#26a6fe"/></g><path d="m193 424c0-4.142 3.357-7.5 7.5-7.5h-20c-4.143 0-7.5 3.358-7.5 7.5s3.357 7.5 7.5 7.5h20c-4.143 0-7.5-3.358-7.5-7.5z" fill="#0593fc"/></g></svg>